<svg width="90" height="40" viewBox="0 0 90 40" fill="none" xmlns="http://www.w3.org/2000/svg">
<g clip-path="url(#clip0_533_7524)">
<path d="M48.6387 31.3613C48.3984 31.3613 48.1992 31.1621 48.1992 30.9219V25.4609C48.1992 25.2207 48.3984 25.0215 48.6387 25.0215H51.3691C51.6094 25.0215 51.8086 25.2207 51.8086 25.4609V30.9219C51.8086 31.1621 51.6094 31.3613 51.3691 31.3613H48.6387ZM50.9297 30.4824V29.5391H49.0781V30.4824H50.9297ZM49.0781 25.9004V28.6602H50.9297V25.9004H49.0781Z" fill="#888888"/>
<path d="M43.6348 25.0215H46.3652C46.6055 25.0215 46.8047 25.2207 46.8047 25.4609V30.9219C46.8047 31.1621 46.6055 31.3613 46.3652 31.3613H43.6348C43.3945 31.3613 43.1953 31.1621 43.1953 30.9219V29.1055V25.4668C43.1953 25.2148 43.3945 25.0215 43.6348 25.0215ZM44.0742 25.9004V28.6602H45.9258V25.9004H44.0742ZM45.9258 30.4824V29.5391H44.0742V30.4824H45.9258Z" fill="#888888"/>
<path d="M30.9082 29.0996V25.4609C30.9082 24.2129 31.9219 23.1992 33.1699 23.1992C34.418 23.1992 35.4316 24.2129 35.4316 25.4609V29.0996C35.4316 30.1953 34.6465 31.1094 33.6094 31.3145V34.1211H36.3691V23.1758H35.9004C35.6602 23.1758 35.4609 22.9766 35.4609 22.7363C35.4609 22.4961 35.6602 22.2969 35.9004 22.2969H36.3691V20.0527C36.3691 19.8125 36.5684 19.6133 36.8086 19.6133C37.0488 19.6133 37.248 19.8125 37.248 20.0527V22.2969H38.1914V17.2754C38.1914 17.0352 38.3906 16.8359 38.6309 16.8359H41.3613C41.6016 16.8359 41.8008 17.0352 41.8008 17.2754V22.2969H43.1953V20.9141V17.2754C43.1953 17.0352 43.3945 16.8359 43.6348 16.8359H46.3652C46.6055 16.8359 46.8047 17.0352 46.8047 17.2754V22.2969H48.1992V17.2754C48.1992 17.0352 48.3984 16.8359 48.6387 16.8359H51.3691C51.6094 16.8359 51.8086 17.0352 51.8086 17.2754V22.2969H52.752V14.9785H37.248V18.1309C37.248 18.3711 37.0488 18.5703 36.8086 18.5703C36.5684 18.5703 36.3691 18.3711 36.3691 18.1309V14.9785H35.9004C35.6602 14.9785 35.4609 14.7793 35.4609 14.5391C35.4609 14.2988 35.6602 14.0996 35.9004 14.0996H36.3691V7.70117H35.9004C35.6602 7.70117 35.4609 7.50195 35.4609 7.26172V5.43945C35.4609 5.19922 35.6602 5 35.9004 5H44.0449C44.2852 5 44.4844 5.19922 44.4844 5.43945C44.4844 5.67969 44.2852 5.87891 44.0449 5.87891H36.3398V6.82227H36.8086H53.1914H53.6602V5.87891H45.9551C45.7148 5.87891 45.5156 5.67969 45.5156 5.43945C45.5156 5.19922 45.7148 5 45.9551 5H54.0996C54.3398 5 54.5391 5.19922 54.5391 5.43945V7.26172C54.5391 7.50195 54.3398 7.70117 54.0996 7.70117H53.6309V14.1055H54.0996C54.3398 14.1055 54.5391 14.3047 54.5391 14.5449C54.5391 14.7852 54.3398 14.9844 54.0996 14.9844H53.6309V22.2969H54.0996C54.3398 22.2969 54.5391 22.4961 54.5391 22.7363C54.5391 22.9766 54.3398 23.1758 54.0996 23.1758H53.6309V26.3281C53.6309 26.5684 53.4316 26.7676 53.1914 26.7676C52.9512 26.7676 52.752 26.5684 52.752 26.3281V23.1758H37.248V34.1211H38.1914V27.2773C38.1914 27.0371 38.3906 26.8379 38.6309 26.8379H41.3613C41.6016 26.8379 41.8008 27.0371 41.8008 27.2773V34.1211H52.752V28.2383C52.752 27.998 52.9512 27.7988 53.1914 27.7988C53.4316 27.7988 53.6309 27.998 53.6309 28.2383V34.1211H56.3906V31.3145C55.957 31.2266 55.5527 31.0156 55.2305 30.6934C54.8027 30.2656 54.5684 29.6973 54.5684 29.0938V25.4551C54.5684 24.207 55.582 23.1934 56.8301 23.1934C58.0781 23.1934 59.0918 24.207 59.0918 25.4551V29.0938C59.0918 30.1895 58.3066 31.1035 57.2695 31.3086V34.1211H58.6523C58.8926 34.1211 59.0918 34.3203 59.0918 34.5605C59.0918 34.8008 58.8926 35 58.6523 35H53.1973H36.8145H31.3477C31.1074 35 30.9082 34.8008 30.9082 34.5605C30.9082 34.3203 31.1074 34.1211 31.3477 34.1211H32.7305V31.3145C31.6934 31.1094 30.9082 30.1953 30.9082 29.0996ZM40.9219 21.3477H39.0703V22.291H40.9219V21.3477ZM39.0703 17.709V20.4688H40.9219V17.709H39.0703ZM45.9258 21.3477H44.0742V22.291H45.9258V21.3477ZM44.0742 17.709V20.4688H45.9258V17.709H44.0742ZM50.9297 21.3477H49.0781V22.291H50.9297V21.3477ZM49.0781 17.709V20.4688H50.9297V17.709H49.0781ZM50.9297 13.1621H49.0781V14.1055H50.9297V13.1621ZM49.0781 12.2832H50.9297V9.51758H49.0781V12.2832ZM45.9258 13.1621H44.0742V14.1055H45.9258V13.1621ZM44.0742 12.2832H45.9258V9.51758H44.0742V12.2832ZM40.9219 13.1621H39.0703V14.1055H40.9219V13.1621ZM39.0703 12.2832H40.9219V9.51758H39.0703V12.2832ZM52.752 7.70117H37.248V14.1055H38.1914V9.07812C38.1914 8.83789 38.3906 8.63867 38.6309 8.63867H41.3613C41.6016 8.63867 41.8008 8.83789 41.8008 9.07812V14.0996H43.1953V12.7168V9.07812C43.1953 8.83789 43.3945 8.63867 43.6348 8.63867H46.3652C46.6055 8.63867 46.8047 8.83789 46.8047 9.07812V14.0996H48.1992V9.07812C48.1992 8.83789 48.3984 8.63867 48.6387 8.63867H51.3691C51.6094 8.63867 51.8086 8.83789 51.8086 9.07812V14.0996H52.752V7.70117ZM40.9219 29.5391H39.0703V34.1211H40.9219V29.5391ZM39.0703 27.7168V28.6602H40.9219V27.7168H39.0703ZM58.2129 29.0996V25.4609C58.2129 24.6992 57.5918 24.0781 56.8301 24.0781C56.0684 24.0781 55.4473 24.6992 55.4473 25.4609V29.0996C55.4473 29.4688 55.5937 29.8145 55.8516 30.0781C56.1094 30.3359 56.4551 30.4824 56.8242 30.4824C56.8242 30.4824 56.8242 30.4824 56.8301 30.4824C56.8301 30.4824 56.8301 30.4824 56.8359 30.4824C57.5918 30.4766 58.2129 29.8613 58.2129 29.0996ZM34.5527 29.0996V25.4609C34.5527 24.6992 33.9316 24.0781 33.1699 24.0781C32.4082 24.0781 31.7871 24.6992 31.7871 25.4609V29.0996C31.7871 29.8613 32.4023 30.4766 33.1641 30.4824C33.1641 30.4824 33.1641 30.4824 33.1699 30.4824C33.9316 30.4766 34.5527 29.8613 34.5527 29.0996Z" fill="#888888"/>
</g>
<g clip-path="url(#clip1_533_7524)">
<path d="M4.94189 15.6139H5.07812V17.7353C5.07812 17.9599 5.26122 18.1423 5.48682 18.1423H12.2575C12.4831 18.1423 12.6662 17.9599 12.6662 17.7353V15.6139H12.8024C13.028 15.6139 13.2111 15.4316 13.2111 15.2069C13.2111 14.9822 13.028 14.7999 12.8024 14.7999H12.6662V12.6785C12.6662 12.4538 12.4831 12.2715 12.2575 12.2715H5.48682C5.26122 12.2715 5.07812 12.4538 5.07812 12.6785V14.7999H4.94189C4.7163 14.7999 4.5332 14.9822 4.5332 15.2069C4.5332 15.4316 4.7163 15.6139 4.94189 15.6139ZM5.89551 15.6139H6.77065V17.3282H5.89551V15.6139ZM8.46318 15.6139V17.3282H7.58804V15.6139H8.46318ZM10.1557 15.6139V17.3282H9.28056V15.6139H10.1557ZM11.8482 17.3282H10.9731V15.6139H11.8482V17.3282ZM5.89551 13.0855H11.8488V14.7999H5.89551V13.0855Z" fill="#888888"/>
<path d="M12.2575 24.8864C12.4831 24.8864 12.6662 24.7041 12.6662 24.4794V22.358H12.8024C13.028 22.358 13.2111 22.1757 13.2111 21.951C13.2111 21.7263 13.028 21.544 12.8024 21.544H12.6662V19.4226C12.6662 19.198 12.4831 19.0156 12.2575 19.0156H5.48682C5.26122 19.0156 5.07812 19.198 5.07812 19.4226V21.544H4.94189C4.7163 21.544 4.5332 21.7263 4.5332 21.951C4.5332 22.1757 4.7163 22.358 4.94189 22.358H5.07812V24.4794C5.07812 24.7041 5.26122 24.8864 5.48682 24.8864H12.2575ZM8.46318 22.358V24.0724H7.58804V22.358H8.46318ZM10.1557 22.358V24.0724H9.28056V22.358H10.1557ZM11.8482 24.0724H10.9731V22.358H11.8482V24.0724ZM5.89496 19.8291H11.8482V21.5435H5.89551V19.8291H5.89496ZM6.77011 22.3575V24.0718H5.89496V22.3575H6.77011Z" fill="#888888"/>
<path d="M8.02588 30.8145C7.80028 30.8145 7.61719 30.9968 7.61719 31.2215V32.0643C7.61719 32.2889 7.80028 32.4713 8.02588 32.4713C8.25148 32.4713 8.43457 32.2889 8.43457 32.0643V31.2215C8.43457 30.9968 8.25148 30.8145 8.02588 30.8145Z" fill="#888888"/>
<path d="M22.9582 14.7999H22.8219V12.6785C22.8219 12.4538 22.6388 12.2715 22.4132 12.2715H15.6426C15.417 12.2715 15.2339 12.4538 15.2339 12.6785V14.7999H15.0977C14.8721 14.7999 14.689 14.9822 14.689 15.2069C14.689 15.4316 14.8721 15.6139 15.0977 15.6139H15.2339V17.7353C15.2339 17.9599 15.417 18.1423 15.6426 18.1423H22.4132C22.6388 18.1423 22.8219 17.9599 22.8219 17.7353V15.6139H22.9582C23.1838 15.6139 23.3668 15.4316 23.3668 15.2069C23.3668 14.9822 23.1838 14.7999 22.9582 14.7999ZM16.0513 13.0855H22.0045V14.7999H16.0513V13.0855ZM18.6189 15.6139V17.3282H17.7438V15.6139H18.6189ZM19.4363 15.6139H20.3115V17.3282H19.4363V15.6139ZM16.0513 15.6139H16.9264V17.3282H16.0513V15.6139ZM22.0045 17.3282H21.1294V15.6139H22.0045V17.3282Z" fill="#888888"/>
<path d="M15.6426 24.8864H22.4132C22.6388 24.8864 22.8219 24.7041 22.8219 24.4794V22.358H22.9582C23.1838 22.358 23.3668 22.1757 23.3668 21.951C23.3668 21.7263 23.1838 21.544 22.9582 21.544H22.8219V19.4226C22.8219 19.198 22.6388 19.0156 22.4132 19.0156H15.6426C15.417 19.0156 15.2339 19.198 15.2339 19.4226V21.544H15.0977C14.8721 21.544 14.689 21.7263 14.689 21.951C14.689 22.1757 14.8721 22.358 15.0977 22.358H15.2339V24.4794C15.2339 24.7041 15.417 24.8864 15.6426 24.8864ZM16.0513 22.358H16.9264V24.0724H16.0513V22.358ZM18.6189 22.358V24.0724H17.7438V22.358H18.6189ZM20.3115 22.358V24.0724H19.4363V22.358H20.3115ZM22.004 24.0724H21.1289V22.358H22.004V24.0724ZM16.0507 19.8291H22.004V21.5435H16.0507V19.8291Z" fill="#888888"/>
<path d="M18.1824 30.8145C17.9568 30.8145 17.7737 30.9968 17.7737 31.2215V32.0643C17.7737 32.2889 17.9568 32.4713 18.1824 32.4713C18.408 32.4713 18.5911 32.2889 18.5911 32.0643V31.2215C18.5911 30.9968 18.408 30.8145 18.1824 30.8145Z" fill="#888888"/>
<path d="M27.4913 34.1864H26.2075V31.5896C26.6129 31.5104 26.9856 31.3134 27.2842 31.016C27.6809 30.6209 27.8995 30.095 27.8995 29.5361V26.1649C27.8995 25.0111 26.9567 24.0723 25.7982 24.0723C25.3149 24.0723 24.8697 24.2362 24.5139 24.5102V19.6206C24.5139 19.396 24.3308 19.2136 24.1052 19.2136C23.8796 19.2136 23.6965 19.396 23.6965 19.6206V34.1864H21.9751V27.8505C21.9751 27.6258 21.792 27.4435 21.5664 27.4435H16.4882C16.2626 27.4435 16.0796 27.6258 16.0796 27.8505V34.1864H14.3581V11.4006H23.6965V17.8466C23.6965 18.0713 23.8796 18.2536 24.1052 18.2536C24.3308 18.2536 24.5139 18.0713 24.5139 17.8466V10.9935C24.5139 10.7689 24.3308 10.5865 24.1052 10.5865H23.6676V9.30741C23.6676 9.08273 23.4845 8.90039 23.2589 8.90039H19.918C19.6924 8.90039 19.5093 9.08273 19.5093 9.30741C19.5093 9.53208 19.6924 9.71442 19.918 9.71442H22.8502V10.5865H15.2044V9.71442H18.1366C18.3622 9.71442 18.5453 9.53208 18.5453 9.30741C18.5453 9.08273 18.3622 8.90039 18.1366 8.90039H14.7957C14.5701 8.90039 14.387 9.08273 14.387 9.30741V10.5865H13.9527C13.9527 10.5865 13.9505 10.5865 13.9495 10.5865H13.5119V9.30741C13.5119 9.08273 13.3288 8.90039 13.1032 8.90039H9.76227C9.53668 8.90039 9.35358 9.08273 9.35358 9.30741C9.35358 9.53208 9.53668 9.71442 9.76227 9.71442H12.6945V10.5865H5.04925V9.71442H7.98147C8.20707 9.71442 8.39016 9.53208 8.39016 9.30741C8.39016 9.08273 8.20707 8.90039 7.98147 8.90039H4.64055C4.41496 8.90039 4.23186 9.08273 4.23186 9.30741V10.5865H3.79429C3.56869 10.5865 3.3856 10.7689 3.3856 10.9935V24.5102C3.03031 24.2362 2.58511 24.0723 2.10176 24.0723C0.94326 24.0723 0.000544922 25.0111 0.000544922 26.1649V29.5361C0.000544922 30.5504 0.72965 31.3986 1.69307 31.5885V34.1858H0.408691C0.183094 34.1858 0 34.3682 0 34.5928C0 34.8175 0.183094 34.9998 0.408691 34.9998H2.09904C2.09904 34.9998 2.10067 34.9998 2.10122 34.9998C2.10176 34.9998 2.10285 34.9998 2.1034 34.9998H13.9478C13.9478 34.9998 13.9495 34.9998 13.95 34.9998H24.1057C24.1057 34.9998 24.1073 34.9998 24.1079 34.9998H25.7966C25.7966 34.9998 25.7982 34.9998 25.7988 34.9998C25.7993 34.9998 25.8004 34.9998 25.801 34.9998H27.4913C27.7169 34.9998 27.9 34.8175 27.9 34.5928C27.9 34.3682 27.7169 34.1858 27.4913 34.1858V34.1864ZM16.8975 28.2575H21.1582V34.1864H16.8975V28.2575ZM0.817383 29.5366V26.1654C0.817383 25.4605 1.39337 24.8869 2.10122 24.8869C2.80907 24.8869 3.38505 25.4605 3.38505 26.1654V29.5366C3.38505 29.878 3.25155 30.1992 3.00906 30.4407C2.76657 30.6822 2.44561 30.8146 2.10394 30.8152C2.10285 30.8152 2.10176 30.8152 2.10122 30.8152C2.10013 30.8152 2.09958 30.8152 2.09849 30.8152C1.39173 30.8136 0.817383 30.2405 0.817383 29.5366ZM2.50991 31.5901C2.82869 31.5277 3.12731 31.3926 3.3856 31.1929V34.1869H2.50991V31.5901ZM4.20244 11.4006H4.63729C4.63729 11.4006 4.63946 11.4006 4.64055 11.4006H13.1037C13.1037 11.4006 13.1059 11.4006 13.107 11.4006H13.5413V34.1864H11.8199V27.8505C11.8199 27.6258 11.6368 27.4435 11.4112 27.4435H6.33308C6.10748 27.4435 5.92439 27.6258 5.92439 27.8505V34.1864H4.20298V11.4006H4.20244ZM6.74123 34.1864V28.2575H11.002V34.1864H6.74177H6.74123ZM24.5144 26.1649C24.5144 25.4599 25.0904 24.8863 25.7982 24.8863C26.5061 24.8863 27.0821 25.4599 27.0821 26.1649V29.5361C27.0821 29.8774 26.9486 30.1987 26.7061 30.4402C26.4636 30.6817 26.1432 30.8141 25.801 30.8146C25.7999 30.8146 25.7993 30.8146 25.7982 30.8146C25.7971 30.8146 25.7961 30.8146 25.7955 30.8146C25.0887 30.813 24.5144 30.2405 24.5144 29.5361V26.1649ZM25.3901 31.5891V34.1864H24.5144V31.1907C24.7672 31.3855 25.0653 31.5245 25.3901 31.5885V31.5891Z" fill="#888888"/>
</g>
<g clip-path="url(#clip2_533_7524)">
<path d="M67.0422 15.6139H67.1785V17.7353C67.1785 17.9599 67.3616 18.1423 67.5872 18.1423H74.3578C74.5834 18.1423 74.7665 17.9599 74.7665 17.7353V15.6139H74.9027C75.1283 15.6139 75.3114 15.4316 75.3114 15.2069C75.3114 14.9822 75.1283 14.7999 74.9027 14.7999H74.7665V12.6785C74.7665 12.4538 74.5834 12.2715 74.3578 12.2715H67.5872C67.3616 12.2715 67.1785 12.4538 67.1785 12.6785V14.7999H67.0422C66.8166 14.7999 66.6335 14.9822 66.6335 15.2069C66.6335 15.4316 66.8166 15.6139 67.0422 15.6139ZM67.9958 15.6139H68.871V17.3282H67.9958V15.6139ZM70.5635 15.6139V17.3282H69.6884V15.6139H70.5635ZM72.256 15.6139V17.3282H71.3809V15.6139H72.256ZM73.9486 17.3282H73.0734V15.6139H73.9486V17.3282ZM67.9958 13.0855H73.9491V14.7999H67.9958V13.0855Z" fill="#888888"/>
<path d="M74.3576 24.8864C74.5832 24.8864 74.7663 24.7041 74.7663 24.4794V22.358H74.9025C75.1281 22.358 75.3112 22.1757 75.3112 21.951C75.3112 21.7263 75.1281 21.544 74.9025 21.544H74.7663V19.4226C74.7663 19.198 74.5832 19.0156 74.3576 19.0156H67.5869C67.3613 19.0156 67.1782 19.198 67.1782 19.4226V21.544H67.042C66.8164 21.544 66.6333 21.7263 66.6333 21.951C66.6333 22.1757 66.8164 22.358 67.042 22.358H67.1782V24.4794C67.1782 24.7041 67.3613 24.8864 67.5869 24.8864H74.3576ZM70.5633 22.358V24.0724H69.6881V22.358H70.5633ZM72.2558 22.358V24.0724H71.3807V22.358H72.2558ZM73.9483 24.0724H73.0732V22.358H73.9483V24.0724ZM67.9951 19.8291H73.9483V21.5435H67.9956V19.8291H67.9951ZM68.8702 22.3575V24.0718H67.9951V22.3575H68.8702Z" fill="#888888"/>
<path d="M70.1257 30.8145C69.9001 30.8145 69.717 30.9968 69.717 31.2215V32.0643C69.717 32.2889 69.9001 32.4713 70.1257 32.4713C70.3513 32.4713 70.5344 32.2889 70.5344 32.0643V31.2215C70.5344 30.9968 70.3513 30.8145 70.1257 30.8145Z" fill="#888888"/>
<path d="M85.058 14.7999H84.9218V12.6785C84.9218 12.4538 84.7387 12.2715 84.5131 12.2715H77.7424C77.5168 12.2715 77.3337 12.4538 77.3337 12.6785V14.7999H77.1975C76.9719 14.7999 76.7888 14.9822 76.7888 15.2069C76.7888 15.4316 76.9719 15.6139 77.1975 15.6139H77.3337V17.7353C77.3337 17.9599 77.5168 18.1423 77.7424 18.1423H84.5131C84.7387 18.1423 84.9218 17.9599 84.9218 17.7353V15.6139H85.058C85.2836 15.6139 85.4667 15.4316 85.4667 15.2069C85.4667 14.9822 85.2836 14.7999 85.058 14.7999ZM78.1511 13.0855H84.1044V14.7999H78.1511V13.0855ZM80.7188 15.6139V17.3282H79.8437V15.6139H80.7188ZM81.5362 15.6139H82.4113V17.3282H81.5362V15.6139ZM78.1511 15.6139H79.0263V17.3282H78.1511V15.6139ZM84.1044 17.3282H83.2293V15.6139H84.1044V17.3282Z" fill="#888888"/>
<path d="M77.7427 24.8864H84.5133C84.7389 24.8864 84.922 24.7041 84.922 24.4794V22.358H85.0583C85.2838 22.358 85.4669 22.1757 85.4669 21.951C85.4669 21.7263 85.2838 21.544 85.0583 21.544H84.922V19.4226C84.922 19.198 84.7389 19.0156 84.5133 19.0156H77.7427C77.5171 19.0156 77.334 19.198 77.334 19.4226V21.544H77.1978C76.9722 21.544 76.7891 21.7263 76.7891 21.951C76.7891 22.1757 76.9722 22.358 77.1978 22.358H77.334V24.4794C77.334 24.7041 77.5171 24.8864 77.7427 24.8864ZM78.1514 22.358H79.0265V24.0724H78.1514V22.358ZM80.719 22.358V24.0724H79.8439V22.358H80.719ZM82.4116 22.358V24.0724H81.5364V22.358H82.4116ZM84.1041 24.0724H83.2289V22.358H84.1041V24.0724ZM78.1508 19.8291H84.1041V21.5435H78.1508V19.8291Z" fill="#888888"/>
<path d="M80.282 30.8145C80.0564 30.8145 79.8733 30.9968 79.8733 31.2215V32.0643C79.8733 32.2889 80.0564 32.4713 80.282 32.4713C80.5076 32.4713 80.6907 32.2889 80.6907 32.0643V31.2215C80.6907 30.9968 80.5076 30.8145 80.282 30.8145Z" fill="#888888"/>
<path d="M89.5914 34.1864H88.3076V31.5896C88.713 31.5104 89.0857 31.3134 89.3843 31.016C89.781 30.6209 89.9996 30.095 89.9996 29.5361V26.1649C89.9996 25.0111 89.0568 24.0723 87.8983 24.0723C87.415 24.0723 86.9698 24.2362 86.614 24.5102V19.6206C86.614 19.396 86.4309 19.2136 86.2053 19.2136C85.9797 19.2136 85.7966 19.396 85.7966 19.6206V34.1864H84.0752V27.8505C84.0752 27.6258 83.8921 27.4435 83.6665 27.4435H78.5883C78.3627 27.4435 78.1797 27.6258 78.1797 27.8505V34.1864H76.4582V11.4006H85.7966V17.8466C85.7966 18.0713 85.9797 18.2536 86.2053 18.2536C86.4309 18.2536 86.614 18.0713 86.614 17.8466V10.9935C86.614 10.7689 86.4309 10.5865 86.2053 10.5865H85.7677V9.30741C85.7677 9.08273 85.5846 8.90039 85.359 8.90039H82.0181C81.7925 8.90039 81.6094 9.08273 81.6094 9.30741C81.6094 9.53208 81.7925 9.71442 82.0181 9.71442H84.9503V10.5865H77.3045V9.71442H80.2367C80.4623 9.71442 80.6454 9.53208 80.6454 9.30741C80.6454 9.08273 80.4623 8.90039 80.2367 8.90039H76.8958C76.6702 8.90039 76.4871 9.08273 76.4871 9.30741V10.5865H76.0528C76.0528 10.5865 76.0506 10.5865 76.0496 10.5865H75.612V9.30741C75.612 9.08273 75.4289 8.90039 75.2033 8.90039H71.8624C71.6368 8.90039 71.4537 9.08273 71.4537 9.30741C71.4537 9.53208 71.6368 9.71442 71.8624 9.71442H74.7946V10.5865H67.1493V9.71442H70.0816C70.3072 9.71442 70.4903 9.53208 70.4903 9.30741C70.4903 9.08273 70.3072 8.90039 70.0816 8.90039H66.7407C66.5151 8.90039 66.332 9.08273 66.332 9.30741V10.5865H65.8944C65.6688 10.5865 65.4857 10.7689 65.4857 10.9935V24.5102C65.1304 24.2362 64.6852 24.0723 64.2019 24.0723C63.0434 24.0723 62.1006 25.0111 62.1006 26.1649V29.5361C62.1006 30.5504 62.8297 31.3986 63.7932 31.5885V34.1858H62.5088C62.2832 34.1858 62.1001 34.3682 62.1001 34.5928C62.1001 34.8175 62.2832 34.9998 62.5088 34.9998H64.1991C64.1991 34.9998 64.2008 34.9998 64.2013 34.9998C64.2019 34.9998 64.203 34.9998 64.2035 34.9998H76.0479C76.0479 34.9998 76.0496 34.9998 76.0501 34.9998H86.2058C86.2058 34.9998 86.2074 34.9998 86.208 34.9998H87.8967C87.8967 34.9998 87.8983 34.9998 87.8989 34.9998C87.8994 34.9998 87.9005 34.9998 87.9011 34.9998H89.5914C89.817 34.9998 90.0001 34.8175 90.0001 34.5928C90.0001 34.3682 89.817 34.1858 89.5914 34.1858V34.1864ZM78.9976 28.2575H83.2583V34.1864H78.9976V28.2575ZM62.9175 29.5366V26.1654C62.9175 25.4605 63.4935 24.8869 64.2013 24.8869C64.9092 24.8869 65.4852 25.4605 65.4852 26.1654V29.5366C65.4852 29.878 65.3516 30.1992 65.1092 30.4407C64.8667 30.6822 64.5457 30.8146 64.204 30.8152C64.203 30.8152 64.2019 30.8152 64.2013 30.8152C64.2002 30.8152 64.1997 30.8152 64.1986 30.8152C63.4918 30.8136 62.9175 30.2405 62.9175 29.5366ZM64.61 31.5901C64.9288 31.5277 65.2274 31.3926 65.4857 31.1929V34.1869H64.61V31.5901ZM66.3025 11.4006H66.7374C66.7374 11.4006 66.7396 11.4006 66.7407 11.4006H75.2038C75.2038 11.4006 75.206 11.4006 75.2071 11.4006H75.6414V34.1864H73.92V27.8505C73.92 27.6258 73.7369 27.4435 73.5113 27.4435H68.4332C68.2076 27.4435 68.0245 27.6258 68.0245 27.8505V34.1864H66.3031V11.4006H66.3025ZM68.8413 34.1864V28.2575H73.1021V34.1864H68.8419H68.8413ZM86.6145 26.1649C86.6145 25.4599 87.1905 24.8863 87.8983 24.8863C88.6062 24.8863 89.1822 25.4599 89.1822 26.1649V29.5361C89.1822 29.8774 89.0487 30.1987 88.8062 30.4402C88.5637 30.6817 88.2433 30.8141 87.9011 30.8146C87.9 30.8146 87.8994 30.8146 87.8983 30.8146C87.8972 30.8146 87.8962 30.8146 87.8956 30.8146C87.1888 30.813 86.6145 30.2405 86.6145 29.5361V26.1649ZM87.4902 31.5891V34.1864H86.6145V31.1907C86.8673 31.3855 87.1654 31.5245 87.4902 31.5885V31.5891Z" fill="#888888"/>
</g>
<defs>
<clipPath id="clip0_533_7524">
<rect width="30" height="30" fill="white" transform="matrix(-1 0 0 1 60 5)"/>
</clipPath>
<clipPath id="clip1_533_7524">
<rect width="27.9" height="26.1" fill="white" transform="translate(0 8.90039)"/>
</clipPath>
<clipPath id="clip2_533_7524">
<rect width="27.9" height="26.1" fill="white" transform="translate(62.1001 8.90039)"/>
</clipPath>
</defs>
</svg>
