<svg width="90" height="40" viewBox="0 0 90 40" fill="none" xmlns="http://www.w3.org/2000/svg">
<path d="M34.6802 12.7169H34.8368V15.1552C34.8368 15.4134 35.0472 15.623 35.3066 15.623H43.0889C43.3482 15.623 43.5587 15.4134 43.5587 15.1552V12.7169H43.7153C43.9746 12.7169 44.185 12.5073 44.185 12.249C44.185 11.9908 43.9746 11.7812 43.7153 11.7812H43.5587V9.34283C43.5587 9.08459 43.3482 8.875 43.0889 8.875H35.3066C35.0472 8.875 34.8368 9.08459 34.8368 9.34283V11.7812H34.6802C34.4209 11.7812 34.2104 11.9908 34.2104 12.249C34.2104 12.5073 34.4209 12.7169 34.6802 12.7169ZM35.7763 12.7169H36.7822V14.6874H35.7763V12.7169ZM38.7277 12.7169V14.6874H37.7218V12.7169H38.7277ZM40.6731 12.7169V14.6874H39.6672V12.7169H40.6731ZM42.6185 14.6874H41.6126V12.7169H42.6185V14.6874ZM35.7763 9.81067H42.6192V11.7812H35.7763V9.81067Z" fill="#888888"/>
<path d="M43.0889 23.375C43.3482 23.375 43.5587 23.1654 43.5587 22.9072V20.4688H43.7153C43.9746 20.4688 44.185 20.2592 44.185 20.001C44.185 19.7427 43.9746 19.5331 43.7153 19.5331H43.5587V17.0948C43.5587 16.8365 43.3482 16.627 43.0889 16.627H35.3066C35.0472 16.627 34.8368 16.8365 34.8368 17.0948V19.5331H34.6802C34.4209 19.5331 34.2104 19.7427 34.2104 20.001C34.2104 20.2592 34.4209 20.4688 34.6802 20.4688H34.8368V22.9072C34.8368 23.1654 35.0472 23.375 35.3066 23.375H43.0889ZM38.7277 20.4688V22.4393H37.7218V20.4688H38.7277ZM40.6731 20.4688V22.4393H39.6672V20.4688H40.6731ZM42.6185 22.4393H41.6126V20.4688H42.6185V22.4393ZM35.7757 17.562H42.6185V19.5325H35.7763V17.562H35.7757ZM36.7816 20.4682V22.4387H35.7757V20.4682H36.7816Z" fill="#888888"/>
<path d="M38.2246 30.1895C37.9653 30.1895 37.7549 30.399 37.7549 30.6573V31.626C37.7549 31.8843 37.9653 32.0938 38.2246 32.0938C38.484 32.0938 38.6944 31.8843 38.6944 31.626V30.6573C38.6944 30.399 38.484 30.1895 38.2246 30.1895Z" fill="#888888"/>
<path d="M55.3886 11.7812H55.232V9.34283C55.232 9.08459 55.0216 8.875 54.7623 8.875H46.9799C46.7206 8.875 46.5101 9.08459 46.5101 9.34283V11.7812H46.3535C46.0942 11.7812 45.8838 11.9908 45.8838 12.249C45.8838 12.5073 46.0942 12.7169 46.3535 12.7169H46.5101V15.1552C46.5101 15.4134 46.7206 15.623 46.9799 15.623H54.7623C55.0216 15.623 55.232 15.4134 55.232 15.1552V12.7169H55.3886C55.6479 12.7169 55.8584 12.5073 55.8584 12.249C55.8584 11.9908 55.6479 11.7812 55.3886 11.7812ZM47.4497 9.81067H54.2925V11.7812H47.4497V9.81067ZM50.401 12.7169V14.6874H49.3951V12.7169H50.401ZM51.3405 12.7169H52.3464V14.6874H51.3405V12.7169ZM47.4497 12.7169H48.4556V14.6874H47.4497V12.7169ZM54.2925 14.6874H53.2866V12.7169H54.2925V14.6874Z" fill="#888888"/>
<path d="M46.9799 23.375H54.7623C55.0216 23.375 55.232 23.1654 55.232 22.9072V20.4688H55.3886C55.6479 20.4688 55.8584 20.2592 55.8584 20.001C55.8584 19.7427 55.6479 19.5331 55.3886 19.5331H55.232V17.0948C55.232 16.8365 55.0216 16.627 54.7623 16.627H46.9799C46.7206 16.627 46.5101 16.8365 46.5101 17.0948V19.5331H46.3535C46.0942 19.5331 45.8838 19.7427 45.8838 20.001C45.8838 20.2592 46.0942 20.4688 46.3535 20.4688H46.5101V22.9072C46.5101 23.1654 46.7206 23.375 46.9799 23.375ZM47.4497 20.4688H48.4556V22.4393H47.4497V20.4688ZM50.401 20.4688V22.4393H49.3951V20.4688H50.401ZM52.3464 20.4688V22.4393H51.3405V20.4688H52.3464ZM54.2919 22.4393H53.286V20.4688H54.2919V22.4393ZM47.449 17.562H54.2919V19.5325H47.449V17.562Z" fill="#888888"/>
<path d="M49.899 30.1895C49.6397 30.1895 49.4292 30.399 49.4292 30.6573V31.626C49.4292 31.8843 49.6397 32.0938 49.899 32.0938C50.1583 32.0938 50.3687 31.8843 50.3687 31.626V30.6573C50.3687 30.399 50.1583 30.1895 49.899 30.1895Z" fill="#888888"/>
<path d="M60.5992 34.0643H59.1235V31.0796C59.5895 30.9885 60.018 30.762 60.3612 30.4202C60.8172 29.9661 61.0683 29.3617 61.0683 28.7192V24.8443C61.0683 23.5181 59.9848 22.439 58.6531 22.439C58.0976 22.439 57.5858 22.6274 57.1768 22.9424V17.3221C57.1768 17.0639 56.9664 16.8543 56.7071 16.8543C56.4478 16.8543 56.2373 17.0639 56.2373 17.3221V34.0643H54.2587V26.7817C54.2587 26.5235 54.0482 26.3139 53.7889 26.3139H47.952C47.6927 26.3139 47.4822 26.5235 47.4822 26.7817V34.0643H45.5036V7.87375H56.2373V15.283C56.2373 15.5412 56.4478 15.7508 56.7071 15.7508C56.9664 15.7508 57.1768 15.5412 57.1768 15.283V7.40591C57.1768 7.14767 56.9664 6.93808 56.7071 6.93808H56.2041V5.46783C56.2041 5.20959 55.9937 5 55.7344 5H51.8942C51.6349 5 51.4245 5.20959 51.4245 5.46783C51.4245 5.72608 51.6349 5.93567 51.8942 5.93567H55.2646V6.93808H46.4763V5.93567H49.8467C50.106 5.93567 50.3165 5.72608 50.3165 5.46783C50.3165 5.20959 50.106 5 49.8467 5H46.0066C45.7473 5 45.5368 5.20959 45.5368 5.46783V6.93808H45.0376C45.0376 6.93808 45.0351 6.93808 45.0339 6.93808H44.5309V5.46783C44.5309 5.20959 44.3204 5 44.0611 5H40.221C39.9617 5 39.7512 5.20959 39.7512 5.46783C39.7512 5.72608 39.9617 5.93567 40.221 5.93567H43.5914V6.93808H34.8037V5.93567H38.1741C38.4334 5.93567 38.6439 5.72608 38.6439 5.46783C38.6439 5.20959 38.4334 5 38.1741 5H34.334C34.0747 5 33.8642 5.20959 33.8642 5.46783V6.93808H33.3613C33.1019 6.93808 32.8915 7.14767 32.8915 7.40591V22.9424C32.4831 22.6274 31.9714 22.439 31.4158 22.439C30.0842 22.439 29.0006 23.5181 29.0006 24.8443V28.7192C29.0006 29.885 29.8387 30.86 30.9461 31.0783V34.0637H29.4698C29.2105 34.0637 29 34.2733 29 34.5315C29 34.7898 29.2105 34.9994 29.4698 34.9994H31.4127C31.4127 34.9994 31.4146 34.9994 31.4152 34.9994C31.4158 34.9994 31.4171 34.9994 31.4177 34.9994H45.032C45.032 34.9994 45.0339 34.9994 45.0345 34.9994H56.7077C56.7077 34.9994 56.7096 34.9994 56.7102 34.9994H58.6513C58.6513 34.9994 58.6531 34.9994 58.6538 34.9994C58.6544 34.9994 58.6557 34.9994 58.6563 34.9994H60.5992C60.8585 34.9994 61.069 34.7898 61.069 34.5315C61.069 34.2733 60.8585 34.0637 60.5992 34.0637V34.0643ZM48.4224 27.2496H53.3198V34.0643H48.4224V27.2496ZM29.9395 28.7198V24.8449C29.9395 24.0346 30.6016 23.3753 31.4152 23.3753C32.2288 23.3753 32.8909 24.0346 32.8909 24.8449V28.7198C32.8909 29.1122 32.7374 29.4814 32.4587 29.759C32.18 30.0366 31.811 30.1888 31.4183 30.1894C31.4171 30.1894 31.4158 30.1894 31.4152 30.1894C31.4139 30.1894 31.4133 30.1894 31.4121 30.1894C30.5997 30.1875 29.9395 29.5288 29.9395 28.7198ZM31.885 31.0802C32.2514 31.0084 32.5946 30.8531 32.8915 30.6236V34.065H31.885V31.0802ZM33.8304 7.87375H34.3302C34.3302 7.87375 34.3327 7.87375 34.334 7.87375H44.0618C44.0618 7.87375 44.0643 7.87375 44.0655 7.87375H44.5647V34.0643H42.5861V26.7817C42.5861 26.5235 42.3756 26.3139 42.1163 26.3139H36.2794C36.0201 26.3139 35.8096 26.5235 35.8096 26.7817V34.0643H33.831V7.87375H33.8304ZM36.7485 34.0643V27.2496H41.6459V34.0643H36.7492H36.7485ZM57.1775 24.8443C57.1775 24.034 57.8395 23.3746 58.6531 23.3746C59.4668 23.3746 60.1288 24.034 60.1288 24.8443V28.7192C60.1288 29.1115 59.9754 29.4808 59.6966 29.7584C59.4179 30.036 59.0496 30.1882 58.6563 30.1888C58.655 30.1888 58.6544 30.1888 58.6531 30.1888C58.6519 30.1888 58.6506 30.1888 58.65 30.1888C57.8376 30.1869 57.1775 29.5288 57.1775 28.7192V24.8443ZM58.184 31.0789V34.0643H57.1775V30.6211C57.4681 30.845 57.8107 31.0047 58.184 31.0783V31.0789Z" fill="#888888"/>
</svg>
