<svg width="90" height="40" viewBox="0 0 90 40" fill="none" xmlns="http://www.w3.org/2000/svg">
<g clip-path="url(#clip0_533_7522)">
<path d="M41.4119 16.8828H41.1006L38.1907 9.04257C37.9365 8.35639 37.2757 7.89258 36.5387 7.89258H15.9914C15.2607 7.89258 14.5936 8.35639 14.3395 9.04257L11.4295 16.8828H11.1182C10.5019 16.8828 10 17.3848 10 18.0011V18.8969C10 19.5132 10.5019 20.0151 11.1182 20.0151H11.2834V30.4603C11.2834 30.7208 11.4994 30.9369 11.7599 30.9369C12.0204 30.9369 12.2364 30.7208 12.2364 30.4603V20.0151H19.7209C20.1402 20.0151 20.5342 19.8499 20.8264 19.5577L26.2651 14.119L31.7037 19.5577C32.0023 19.8563 32.3962 20.0151 32.8092 20.0151H40.2937V21.2795C40.2937 21.54 40.5097 21.756 40.7702 21.756C41.0307 21.756 41.2467 21.54 41.2467 21.2795V20.0151H41.4119C42.0282 20.0151 42.5301 19.5132 42.5301 18.8969V18.0011C42.5301 17.3848 42.0282 16.8828 41.4119 16.8828ZM15.2353 9.37295C15.3497 9.05528 15.6547 8.84561 15.9914 8.84561H36.5387C36.8755 8.84561 37.1804 9.05528 37.2948 9.37295L40.084 16.8765H33.4636L27.3769 10.7898C27.0783 10.4912 26.6844 10.3323 26.2714 10.3323C25.8584 10.3323 25.4582 10.4975 25.1659 10.7898L19.0792 16.8765H12.4461L15.2353 9.37295ZM41.5771 18.8969C41.5771 18.9859 41.5008 19.0621 41.4119 19.0621H32.8092C32.644 19.0621 32.4915 18.9986 32.3772 18.8842L26.6018 13.1088C26.5128 13.0199 26.3921 12.9691 26.2651 12.9691C26.138 12.9691 26.0173 13.0199 25.9283 13.1088L20.153 18.8842C20.0386 18.9986 19.8798 19.0621 19.7209 19.0621H11.1182C11.0293 19.0621 10.953 18.9859 10.953 18.8969V18.0011C10.953 17.9121 11.0293 17.8359 11.1182 17.8359H19.2635C19.3905 17.8359 19.5112 17.785 19.6002 17.6961L25.8267 11.4696C25.941 11.3553 26.0999 11.2917 26.2587 11.2917C26.4175 11.2917 26.5764 11.3553 26.6907 11.4696L32.9172 17.6961C33.0062 17.785 33.1269 17.8359 33.254 17.8359H41.3992C41.4881 17.8359 41.5644 17.9121 41.5644 18.0011L41.5771 18.8969Z" fill="#888888"/>
<path d="M38.6546 33.2368C38.9151 33.2368 39.1311 33.0207 39.1311 32.7602V24.291C39.1311 24.0305 38.9151 23.8145 38.6546 23.8145H32.2375C31.977 23.8145 31.761 24.0305 31.761 24.291V32.7602C31.761 33.0207 31.977 33.2368 32.2375 33.2368H38.6546ZM38.1781 30.2315H35.9226V27.976H38.1781V30.2315ZM34.9695 30.2315H32.714V27.976H34.9695V30.2315ZM38.1781 32.2837H32.714V31.1846H38.1781V32.2837ZM38.1781 27.023H35.9226V24.7675H38.1781V27.023ZM34.9695 24.7675V27.023H32.714V24.7675H34.9695Z" fill="#888888"/>
<path d="M20.2991 33.2368C20.5596 33.2368 20.7756 33.0207 20.7756 32.7602V24.291C20.7756 24.0305 20.5596 23.8145 20.2991 23.8145H13.8757C13.6152 23.8145 13.3992 24.0305 13.3992 24.291V32.7602C13.3992 33.0207 13.6152 33.2368 13.8757 33.2368H20.2991ZM19.8226 30.2315H17.5607V27.976H19.8162V30.2315H19.8226ZM16.6077 30.2315H14.3522V27.976H16.6077V30.2315ZM19.8226 32.2837H14.3586V31.1846H19.8226V32.2837ZM19.8226 27.023H17.5607V24.7675H19.8162V27.023H19.8226ZM16.6077 24.7675V27.023H14.3522V24.7675H16.6077Z" fill="#888888"/>
<path d="M27.8026 25.8672H24.7211C24.4606 25.8672 24.2446 26.0832 24.2446 26.3437V28.3959C24.2446 28.6564 24.4606 28.8724 24.7211 28.8724H27.8026C28.0631 28.8724 28.2791 28.6564 28.2791 28.3959V26.3437C28.2791 26.0832 28.0695 25.8672 27.8026 25.8672ZM27.3261 27.9194H25.1977V26.8202H27.3261V27.9194Z" fill="#888888"/>
<path d="M28.7937 19.8627C28.7937 18.4649 27.6565 17.334 26.265 17.334C24.8736 17.334 23.7363 18.4713 23.7363 19.8627C23.7363 21.2541 24.8736 22.3914 26.265 22.3914C27.6565 22.3914 28.7937 21.2541 28.7937 19.8627ZM24.6894 19.8627C24.6894 18.9923 25.3946 18.287 26.265 18.287C27.1355 18.287 27.8407 18.9923 27.8407 19.8627C27.8407 20.7331 27.1355 21.4384 26.265 21.4384C25.3946 21.4384 24.6894 20.7331 24.6894 19.8627Z" fill="#888888"/>
<path d="M42.5301 34.4315C42.5301 34.171 42.3141 33.9549 42.0536 33.9549H41.2467V23.5097C41.2467 23.2492 41.0307 23.0332 40.7702 23.0332C40.5097 23.0332 40.2937 23.2492 40.2937 23.5097V33.9549H30.3377V24.2912C30.3377 24.0307 30.1217 23.8147 29.8612 23.8147H22.669C22.4085 23.8147 22.1924 24.0307 22.1924 24.2912V33.9549H12.2364V32.6906C12.2364 32.4301 12.0204 32.2141 11.7599 32.2141C11.4994 32.2141 11.2834 32.4301 11.2834 32.6906V33.9549H10.4765C10.216 33.9549 10 34.171 10 34.4315L10.953 34.908H41.5771L42.5301 34.4315ZM23.1455 30.4796H23.8253C24.0858 30.4796 24.3018 30.2635 24.3018 30.003C24.3018 29.7425 24.0858 29.5265 23.8253 29.5265H23.1455V24.7677H29.3783V33.9549H23.1455V30.4796Z" fill="#888888"/>
</g>
<g clip-path="url(#clip1_533_7522)">
<path d="M75.8311 21.6719H68.9968C68.7216 21.6719 68.4985 21.895 68.4985 22.1701V28.1717C68.4985 28.447 68.7216 28.67 68.9968 28.67H75.8312C76.1064 28.67 76.3295 28.4469 76.3295 28.1717V22.1701C76.3294 21.895 76.1064 21.6719 75.8311 21.6719ZM75.3329 27.6735H69.495V24.4921H75.3329V27.6735ZM75.333 23.4957H69.495V22.6684H75.333V23.4957Z" fill="#888888"/>
<path d="M79.9834 30.8404H77.723V26.578C77.723 26.3028 77.4999 26.0797 77.2248 26.0797C76.9496 26.0797 76.7265 26.3028 76.7265 26.578V30.8404H68.9967C68.7216 30.8404 68.4985 31.0635 68.4985 31.3386V33.7471H67.7525V23.8523C67.7525 23.5772 67.5294 23.3541 67.2543 23.3541H61.2527C60.9775 23.3541 60.7544 23.5772 60.7544 23.8523V33.7471H60.3085V31.3386C60.3085 31.0635 60.0854 30.8404 59.8103 30.8404H59.5245V22.2807L68.1253 14.0693L76.7265 22.2812V24.2528C76.7265 24.528 76.9496 24.7511 77.2247 24.7511C77.4999 24.7511 77.723 24.528 77.723 24.2528V23.2326L78.1414 23.632C78.3251 23.8074 78.6112 23.8165 78.8057 23.6533L80.2435 22.4464C80.3102 22.3904 80.3657 22.3207 80.3973 22.2396C80.4737 22.0439 80.421 21.8313 80.2777 21.6948L77.8198 19.354V12.914C77.8198 12.6389 77.5967 12.4158 77.3216 12.4158H72.772C72.4968 12.4158 72.2737 12.6389 72.2737 12.914V14.0722L69.1869 11.1323L68.4645 10.4614C68.2734 10.2838 67.9777 10.2838 67.7863 10.4614L67.0595 11.1367L61.7223 16.2196C61.6848 12.4316 60.4225 8.91628 58.3804 6.8593C58.178 6.65545 57.8439 6.66858 57.6545 6.88471C57.4814 7.08213 57.4923 7.37888 57.6774 7.5652C59.5685 9.4677 60.7277 12.7947 60.7277 16.3931C60.7277 16.6586 60.7197 16.9239 60.7072 17.1863L55.9732 21.6948C55.8299 21.8313 55.7772 22.0439 55.8535 22.2396C55.8852 22.3207 55.9407 22.3904 56.0074 22.4464L57.4451 23.6533C57.538 23.7313 57.6518 23.77 57.7654 23.77C57.8896 23.77 58.0135 23.7238 58.1095 23.6321L58.5283 23.2324V24.1987C57.3494 25.8708 55.8511 26.7899 54.2958 26.7899C52.6212 26.7899 51.0303 25.7385 49.8159 23.8295C48.5571 21.8506 47.8638 19.2097 47.8638 16.3932C47.8638 13.5767 48.5571 10.9358 49.8159 8.95692C51.0302 7.04792 52.6212 5.99655 54.2959 5.99655C54.8775 5.99655 55.4512 6.12339 56.0068 6.37406C56.2392 6.4789 56.5134 6.38548 56.6393 6.16377C56.7844 5.90844 56.6783 5.58333 56.4106 5.46286C55.7279 5.15547 55.0188 5 54.2959 5C52.2684 5 50.3788 6.21524 48.9752 8.42198C47.6158 10.5586 46.8672 13.3895 46.8672 16.393C46.8672 19.3965 47.6158 22.2273 48.975 24.3642C49.921 25.8515 51.0881 26.8877 52.3691 27.4056V30.8403H50.8531V30.099C50.8531 29.8261 50.6428 29.5883 50.3702 29.58C50.0881 29.5716 49.8566 29.7978 49.8566 30.0781V30.8404H49.2527V30.099C49.2527 29.8262 49.0424 29.5883 48.7698 29.5801C48.4876 29.5717 48.2562 29.7979 48.2562 30.0782V30.8405H47.3654C47.0903 30.8405 46.8672 31.0635 46.8672 31.3387V34.2454C46.8672 34.5206 47.0903 34.7437 47.3654 34.7437H59.8103C59.8108 34.7437 59.8112 34.7436 59.8116 34.7436H61.2527H67.2543H68.9954C68.9959 34.7436 68.9963 34.7437 68.9967 34.7437H79.9833C80.2585 34.7437 80.4816 34.5206 80.4816 34.2454V31.3387C80.4816 31.0634 80.2586 30.8404 79.9834 30.8404ZM73.2702 13.4122H76.8233V18.4049L73.2702 15.0211V13.4122ZM57.744 22.6031L57.0638 22.0321L67.7422 11.8624L68.1254 11.5064L68.5042 11.8581L79.1872 22.0321L78.5069 22.6031L68.4695 13.0201C68.3732 12.9282 68.2494 12.8822 68.1254 12.8822C68.0016 12.8822 67.8777 12.9282 67.7814 13.0201L57.744 22.6031ZM56.2222 27.4039C57.0468 27.0693 57.8257 26.5194 58.5281 25.7741V30.8404H57.8734V30.0781C57.8734 29.8029 57.6504 29.5798 57.3752 29.5798C57.1 29.5798 56.8769 29.8029 56.8769 30.0781V30.8404H56.2222V27.4039ZM53.3656 27.6995C53.6715 27.7569 53.9819 27.7861 54.2957 27.7861C54.609 27.7861 54.9194 27.7562 55.2257 27.6983V30.8403H53.3656V27.6995ZM59.3121 33.7471H59.0263L47.8637 33.7471V31.8369H52.8616C52.8635 31.8369 52.8655 31.8371 52.8674 31.8371H55.7239C55.7258 31.8371 55.7278 31.8369 55.7297 31.8369H59.3122V33.7471H59.3121ZM66.7561 33.7471H61.751V24.3506H66.7561V33.7471ZM79.4852 33.7471H77.2248L69.495 33.7471V31.8369H79.4852V33.7471Z" fill="#888888"/>
<path d="M66.072 26.8379H65.2009C64.9257 26.8379 64.7026 27.061 64.7026 27.3361C64.7026 27.6113 64.9257 27.8344 65.2009 27.8344H66.072C66.3473 27.8344 66.5703 27.6113 66.5703 27.3361C66.5703 27.061 66.3473 26.8379 66.072 26.8379Z" fill="#888888"/>
<path d="M68.1257 15.3691C66.9304 15.3691 65.9578 16.3417 65.9578 17.5371C65.9578 18.7326 66.9304 19.705 68.1257 19.705C69.3211 19.705 70.2937 18.7325 70.2937 17.5371C70.2938 16.3417 69.3212 15.3691 68.1257 15.3691ZM68.1257 18.7085C67.4797 18.7085 66.9542 18.183 66.9542 17.5371C66.9542 16.8912 67.4797 16.3656 68.1257 16.3656C68.7717 16.3656 69.2972 16.8912 69.2972 17.5371C69.2973 18.183 68.7717 18.7085 68.1257 18.7085Z" fill="#888888"/>
</g>
<defs>
<clipPath id="clip0_533_7522">
<rect width="32.5301" height="27.1084" fill="white" transform="translate(10 7.89062)"/>
</clipPath>
<clipPath id="clip1_533_7522">
<rect width="33.6145" height="30" fill="white" transform="translate(46.8672 5)"/>
</clipPath>
</defs>
</svg>
