<svg width="90" height="40" viewBox="0 0 90 40" fill="none" xmlns="http://www.w3.org/2000/svg">
<path d="M42.4729 11.5547H38.0273C37.6234 11.5547 37.2949 11.8831 37.2949 12.2871V19.5488C37.2949 19.9526 37.6234 20.2813 38.0273 20.2813H42.4729C42.8769 20.2813 43.2053 19.9526 43.2053 19.5488V12.2871C43.2053 11.8831 42.8769 11.5547 42.4729 11.5547ZM39.8106 19.4024H38.1738V17.6052H39.8106V19.4024ZM39.8106 16.7263H38.1738V15.1095H39.8106V16.7263ZM39.8106 14.2305H38.1738V12.4336H39.8106V14.2305ZM42.3264 19.4024H40.6895V17.6052H42.3264V19.4024ZM42.3264 16.7263H40.6895V15.1095H42.3264V16.7263ZM42.3264 14.2305H40.6895V12.4336H42.3264V14.2305Z" fill="#888888"/>
<path d="M48.3672 29.0996C48.1243 29.0996 47.9277 29.2964 47.9277 29.5391V30.5942C47.9277 30.8368 48.1243 31.0337 48.3672 31.0337C48.61 31.0337 48.8066 30.8368 48.8066 30.5942V29.5391C48.8066 29.2964 48.61 29.0996 48.3672 29.0996Z" fill="#888888"/>
<path d="M59.9958 24.6614C59.9754 24.5071 59.8965 24.3696 59.7736 24.2744L50.4633 17.0708C50.2569 16.9112 50.0102 16.8268 49.7497 16.8268C49.489 16.8268 49.2423 16.9112 49.0356 17.071L47.6275 18.1605V16.8984C47.6275 16.6556 47.4309 16.459 47.1881 16.459C46.9452 16.459 46.7486 16.6556 46.7486 16.8984V18.8405L39.7261 24.2741C39.6038 24.3684 39.5226 24.5106 39.5034 24.6632C39.4834 24.8177 39.5249 24.9711 39.6199 25.0949L40.3324 26.0217C40.4443 26.1665 40.6132 26.2496 40.7961 26.2496C40.9247 26.2496 41.0517 26.2064 41.1538 26.1274L49.7497 19.4765L56.247 24.5037V33.6599H52.7075V32.8359C52.7075 32.5931 52.5109 32.3965 52.2681 32.3965C52.0252 32.3965 51.8286 32.5931 51.8286 32.8359V33.6599H47.6701V26.9276H51.8286V30.7705C51.8286 31.0133 52.0252 31.2099 52.2681 31.2099C52.5109 31.2099 52.7075 31.0133 52.7075 30.7705V26.7811C52.7075 26.3773 52.3789 26.0487 51.9751 26.0487H47.5238C47.1198 26.0487 46.7912 26.3773 46.7912 26.7811V33.6599H43.4518V32.4612C43.4518 32.0573 43.1233 31.7288 42.7194 31.7288H42.2987C42.3337 31.554 42.3527 31.3734 42.3527 31.1884C42.3527 29.6675 41.1151 28.4302 39.5942 28.4302C38.7686 28.4302 37.9962 28.809 37.4796 29.4233C37.2841 29.3615 37.0763 29.3279 36.8607 29.3279C36.7023 29.3279 36.5467 29.3455 36.3954 29.3807C35.9168 28.5609 35.0237 28.0335 34.0583 28.0335C33.9555 28.0335 33.8539 28.0399 33.7536 28.0516V13.3414L40.2511 8.31375L46.7488 13.3414V14.8474C46.7488 15.0903 46.9454 15.2869 47.1883 15.2869C47.4309 15.2869 47.6277 15.0903 47.6277 14.8474V14.0214L48.8472 14.9648C48.9491 15.0438 49.0761 15.0871 49.2047 15.0871C49.3881 15.0871 49.5572 15.0037 49.6687 14.8586C49.6703 14.8566 49.6719 14.8543 49.6735 14.8522L50.356 13.9303L50.3604 13.9248C50.4054 13.8683 50.5251 13.7183 50.4972 13.4988C50.4769 13.3439 50.3977 13.2063 50.275 13.1118L40.965 5.9082C40.7585 5.74867 40.5118 5.66422 40.2511 5.66422C39.9904 5.66422 39.7437 5.74867 39.537 5.90843L36.9808 7.8862V7.33231C37.3265 7.27371 37.5906 6.97296 37.5906 6.6111V5.73242C37.5906 5.32845 37.2619 5 36.8582 5H33.297C32.8933 5 32.5646 5.32845 32.5646 5.73242V6.61087C32.5646 6.97296 32.8287 7.27348 33.1743 7.33231V10.8315L30.2282 13.1111C30.1055 13.2054 30.0242 13.3478 30.005 13.5C29.9849 13.6547 30.0261 13.8081 30.1213 13.9321L30.8338 14.8589C30.9455 15.004 31.1144 15.0871 31.2975 15.0871C31.4261 15.0871 31.5529 15.0438 31.6555 14.9648L32.8747 14.0214V28.31C32.1771 28.6533 31.6399 29.2896 31.4403 30.0658C30.7777 30.3212 30.3225 30.9648 30.3225 31.6954C30.3225 31.776 30.3282 31.8552 30.3387 31.933C30.1993 32.0664 30.1123 32.2536 30.1123 32.4612V33.8066C30.1123 34.2104 30.4408 34.539 30.8448 34.539H58.3996C58.6424 34.539 58.839 34.3422 58.839 34.0996C58.839 33.8567 58.6424 33.6601 58.3996 33.6601H57.1259V25.1837L58.3456 26.1274C58.4474 26.2061 58.5745 26.2496 58.7031 26.2496C58.8864 26.2496 59.0556 26.1663 59.167 26.021C59.1686 26.0189 59.1702 26.0168 59.1718 26.0148L59.8546 25.0926L59.8592 25.0869C59.904 25.0306 60.0235 24.8807 59.9958 24.6614ZM39.5942 29.3091C40.6306 29.3091 41.4738 30.1523 41.4738 31.1884C41.4738 31.3763 41.4454 31.5576 41.3939 31.7288H38.8872C38.9062 31.6171 38.9167 31.5022 38.9167 31.385C38.9167 30.7888 38.6615 30.2514 38.2553 29.8751C38.6027 29.5224 39.0834 29.3091 39.5942 29.3091ZM33.4435 5.87891H36.7117V6.46439H33.4435V5.87891ZM36.1019 7.34329V8.56621L34.0532 10.1514V7.34329H36.1019ZM31.3508 14.0894L30.9963 13.6282L40.0746 6.60355C40.1266 6.56349 40.1859 6.54312 40.2511 6.54312C40.3163 6.54312 40.3756 6.56349 40.4273 6.60332L49.4933 13.6183L49.1473 14.0859L40.52 7.41058C40.3617 7.28813 40.1406 7.28813 39.9822 7.41058L31.3508 14.0894ZM42.5729 33.6601H30.9912V32.6077H35.0392C35.2819 32.6077 35.4787 32.4111 35.4787 32.1683C35.4787 31.9254 35.2819 31.7288 35.0392 31.7288H31.2025C31.202 31.7176 31.2014 31.7066 31.2014 31.6954C31.2014 31.2809 31.4959 30.9227 31.9022 30.844C32.086 30.8083 32.227 30.6602 32.2535 30.475C32.3817 29.5844 33.1576 28.9127 34.0583 28.9127C34.8062 28.9127 35.4901 29.3821 35.76 30.0806C35.8039 30.1946 35.8932 30.285 36.0067 30.3306C36.1203 30.3759 36.2473 30.3718 36.3578 30.3196C36.5158 30.245 36.6851 30.207 36.8607 30.207C37.5098 30.207 38.0378 30.7355 38.0378 31.3853C38.0378 31.505 38.0191 31.6201 37.9856 31.7288H37.1486C36.9058 31.7288 36.7092 31.9257 36.7092 32.1683C36.7092 32.4111 36.9058 32.6077 37.1486 32.6077H42.5729V33.6601ZM58.6459 25.2485L50.0186 18.5734C49.8602 18.4507 49.6391 18.4507 49.4808 18.5734L40.8492 25.2519L40.4946 24.7907L49.5732 17.7663C49.6252 17.7261 49.6845 17.7057 49.7497 17.7057C49.8147 17.7057 49.8742 17.7261 49.9259 17.7661L58.9919 24.7809L58.6459 25.2485Z" fill="#888888"/>
</svg>
