<svg width="200" height="70" viewBox="0 0 200 70" fill="none" xmlns="http://www.w3.org/2000/svg">
<path d="M63.5969 53.776H95.0923M122.052 37.1465H127.596L141.453 47.225M130.619 44.7054L127.596 42.1857H124.068" stroke="#888888" stroke-width="1.00785" stroke-linecap="round" stroke-linejoin="round"/>
<path d="M130.619 53.7754H141.202" stroke="#888888" stroke-width="1.00785" stroke-linecap="round"/>
<path d="M127.343 41.9318V37.3965" stroke="#888888" stroke-width="1.00785" stroke-linecap="round"/>
<path d="M116.761 53.7756V47.7285H141.202V53.7756" stroke="#888888" stroke-width="1.00785" stroke-linecap="round"/>
<path d="M76.1946 46.7211V37.1465" stroke="#888888" stroke-width="1.51178" stroke-linecap="round"/>
<path d="M56.0381 53.2699V43.6953" stroke="#888888" stroke-width="1.00785" stroke-linecap="round"/>
<path d="M109.454 57.8054H53.0147C49.7392 57.7214 44.3976 56.7472 49.2353 53.522C54.0729 50.2969 62.9253 42.1837 67.8806 38.6562M118.777 57.8054H147.501C150.692 57.9734 155.715 57.3519 150.272 53.522C144.83 49.6922 135.995 43.1916 131.627 39.9161M63.3453 53.522V47.4749H108.447V53.522" stroke="#888888" stroke-width="1.00785" stroke-linecap="round" stroke-linejoin="round"/>
<rect width="6.04711" height="6.04711" transform="matrix(0.707107 0.707106 -0.707107 0.707106 56.2817 35.6328)" stroke="#888888" stroke-width="1.00785" stroke-linejoin="round"/>
<path d="M63.3447 47.727L79.2184 35.6328H88.2891" stroke="#888888" stroke-width="1.00785" stroke-linecap="round"/>
<mask id="path-10-inside-1_533_7521" fill="white">
<path fill-rule="evenodd" clip-rule="evenodd" d="M74.5048 24.5159C76.612 23.8024 78.7281 23.9629 80.3001 25.1617C80.8176 25.5563 81.2422 26.0376 81.5743 26.585C82.2544 26.8093 82.907 27.1476 83.5055 27.604C86.4931 29.8823 86.9997 34.2409 84.6369 37.3391C82.696 39.8843 79.4224 40.7872 76.6593 39.7653C73.9938 41.3503 71.0351 41.5444 68.9938 39.9877C67.6258 38.9446 66.9071 37.296 66.8296 35.4221C65.1366 33.0297 65.15 29.6534 67.0821 27.1198C68.8945 24.7431 71.869 23.7984 74.5048 24.5159Z"/>
</mask>
<path fill-rule="evenodd" clip-rule="evenodd" d="M74.5048 24.5159C76.612 23.8024 78.7281 23.9629 80.3001 25.1617C80.8176 25.5563 81.2422 26.0376 81.5743 26.585C82.2544 26.8093 82.907 27.1476 83.5055 27.604C86.4931 29.8823 86.9997 34.2409 84.6369 37.3391C82.696 39.8843 79.4224 40.7872 76.6593 39.7653C73.9938 41.3503 71.0351 41.5444 68.9938 39.9877C67.6258 38.9446 66.9071 37.296 66.8296 35.4221C65.1366 33.0297 65.15 29.6534 67.0821 27.1198C68.8945 24.7431 71.869 23.7984 74.5048 24.5159Z" fill="#888888"/>
<path d="M74.5048 24.5159L74.2401 25.4883L74.5367 25.5691L74.828 25.4705L74.5048 24.5159ZM81.5743 26.585L80.7127 27.1078L80.9055 27.4257L81.2586 27.5421L81.5743 26.585ZM76.6593 39.7653L77.0089 38.82L76.5576 38.6531L76.1441 38.899L76.6593 39.7653ZM66.8296 35.4221L67.8366 35.3805L67.8243 35.083L67.6523 34.84L66.8296 35.4221ZM80.9113 24.3603C79.0032 22.9052 76.5135 22.7717 74.1815 23.5612L74.828 25.4705C76.7105 24.8331 78.4531 25.0206 79.689 25.9631L80.9113 24.3603ZM82.436 26.0622C82.0414 25.4118 81.5332 24.8346 80.9113 24.3603L79.689 25.9631C80.102 26.2781 80.4431 26.6634 80.7127 27.1078L82.436 26.0622ZM84.1166 26.8025C83.4276 26.2771 82.6748 25.8867 81.89 25.6278L81.2586 27.5421C81.834 27.7319 82.3865 28.0181 82.8943 28.4054L84.1166 26.8025ZM85.4384 37.9502C88.1175 34.4371 87.5741 29.4392 84.1166 26.8025L82.8943 28.4054C85.4121 30.3254 85.8818 34.0446 83.8355 36.7279L85.4384 37.9502ZM76.3097 40.7106C79.4963 41.8891 83.234 40.8408 85.4384 37.9502L83.8355 36.7279C82.1579 38.9279 79.3485 39.6853 77.0089 38.82L76.3097 40.7106ZM68.3826 40.7892C70.8665 42.6834 74.2997 42.341 77.1744 40.6316L76.1441 38.899C73.688 40.3596 71.2036 40.4055 69.6049 39.1863L68.3826 40.7892ZM65.8226 35.4638C65.9096 37.5657 66.7248 39.5249 68.3826 40.7892L69.6049 39.1863C68.5269 38.3642 67.9047 37.0263 67.8366 35.3805L65.8226 35.4638ZM67.6523 34.84C66.2185 32.8139 66.2136 29.9207 67.8835 27.731L66.2806 26.5087C64.0864 29.386 64.0546 33.2455 66.0069 36.0043L67.6523 34.84ZM67.8835 27.731C69.4493 25.6776 72.0034 24.8796 74.2401 25.4883L74.7695 23.5434C71.7346 22.7173 68.3398 23.8085 66.2806 26.5087L67.8835 27.731Z" fill="#888888" mask="url(#path-10-inside-1_533_7521)"/>
<path d="M46.2119 44.9531L29.1361 54.6957C27.4593 55.7315 23.2435 57.8032 19.7942 57.8032C16.3449 57.8032 5.90122 57.8032 1.11053 57.8032" stroke="#888888" stroke-width="1.51178" stroke-linecap="round"/>
<path d="M26.4162 33.7986H26.1654L23.8214 27.483C23.6166 26.9303 23.0844 26.5566 22.4907 26.5566H5.93907C5.3505 26.5566 4.81311 26.9303 4.60839 27.483L2.26434 33.7986H2.01356C1.51711 33.7986 1.11279 34.2029 1.11279 34.6994V35.421C1.11279 35.9174 1.51711 36.3218 2.01356 36.3218H2.14663V44.7357C2.14663 44.9456 2.32064 45.1196 2.53048 45.1196C2.74032 45.1196 2.91433 44.9456 2.91433 44.7357V36.3218H8.94333C9.28112 36.3218 9.59843 36.1887 9.83386 35.9533L14.2149 31.5723L18.5959 35.9533C18.8364 36.1938 19.1537 36.3218 19.4864 36.3218H25.5154V37.3402C25.5154 37.5501 25.6894 37.7241 25.8993 37.7241C26.1091 37.7241 26.2831 37.5501 26.2831 37.3402V36.3218H26.4162C26.9126 36.3218 27.3169 35.9174 27.3169 35.421V34.6994C27.3169 34.2029 26.9126 33.7986 26.4162 33.7986ZM5.33002 27.7491C5.42215 27.4932 5.66781 27.3243 5.93907 27.3243H22.4907C22.7619 27.3243 23.0076 27.4932 23.0997 27.7491L25.3465 33.7935H20.0136L15.1105 28.8904C14.87 28.6499 14.5527 28.5219 14.22 28.5219C13.8873 28.5219 13.5649 28.655 13.3295 28.8904L8.42641 33.7935H3.08322L5.33002 27.7491ZM26.5492 35.421C26.5492 35.4927 26.4878 35.5541 26.4162 35.5541H19.4864C19.3533 35.5541 19.2305 35.5029 19.1384 35.4108L14.4861 30.7585C14.4145 30.6869 14.3172 30.6459 14.2149 30.6459C14.1125 30.6459 14.0153 30.6869 13.9436 30.7585L9.29136 35.4108C9.19923 35.5029 9.07128 35.5541 8.94333 35.5541H2.01356C1.94191 35.5541 1.88049 35.4927 1.88049 35.421V34.6994C1.88049 34.6277 1.94191 34.5663 2.01356 34.5663H8.57484C8.6772 34.5663 8.77444 34.5254 8.84609 34.4537L13.8617 29.4381C13.9539 29.3459 14.0818 29.2948 14.2098 29.2948C14.3377 29.2948 14.4657 29.3459 14.5578 29.4381L19.5734 34.4537C19.6451 34.5254 19.7423 34.5663 19.8447 34.5663H26.4059C26.4776 34.5663 26.539 34.6277 26.539 34.6994L26.5492 35.421Z" fill="#888888"/>
<path d="M24.1946 46.9728C24.4045 46.9728 24.5785 46.7988 24.5785 46.5889V39.7667C24.5785 39.5568 24.4045 39.3828 24.1946 39.3828H19.0255C18.8156 39.3828 18.6416 39.5568 18.6416 39.7667V46.5889C18.6416 46.7988 18.8156 46.9728 19.0255 46.9728H24.1946ZM23.8108 44.552H21.9939V42.7351H23.8108V44.552ZM21.2262 44.552H19.4093V42.7351H21.2262V44.552ZM23.8108 46.2051H19.4093V45.3197H23.8108V46.2051ZM23.8108 41.9674H21.9939V40.1505H23.8108V41.9674ZM21.2262 40.1505V41.9674H19.4093V40.1505H21.2262Z" fill="#888888"/>
<path d="M9.40873 46.9728C9.61857 46.9728 9.79258 46.7988 9.79258 46.5889V39.7667C9.79258 39.5568 9.61857 39.3828 9.40873 39.3828H4.23444C4.0246 39.3828 3.85059 39.5568 3.85059 39.7667V46.5889C3.85059 46.7988 4.0246 46.9728 4.23444 46.9728H9.40873ZM9.02488 44.552H7.20288V42.7351H9.01976V44.552H9.02488ZM6.43518 44.552H4.61829V42.7351H6.43518V44.552ZM9.02488 46.2051H4.6234V45.3197H9.02488V46.2051ZM9.02488 41.9674H7.20288V40.1505H9.01976V41.9674H9.02488ZM6.43518 40.1505V41.9674H4.61829V40.1505H6.43518Z" fill="#888888"/>
<path d="M15.4535 41.0352H12.9713C12.7614 41.0352 12.5874 41.2092 12.5874 41.419V43.0721C12.5874 43.282 12.7614 43.456 12.9713 43.456H15.4535C15.6633 43.456 15.8373 43.282 15.8373 43.0721V41.419C15.8373 41.2092 15.6684 41.0352 15.4535 41.0352ZM15.0696 42.6883H13.3551V41.8029H15.0696V42.6883Z" fill="#888888"/>
<path d="M16.2526 36.201C16.2526 35.0751 15.3365 34.1641 14.2157 34.1641C13.0948 34.1641 12.1787 35.0802 12.1787 36.201C12.1787 37.3219 13.0948 38.238 14.2157 38.238C15.3365 38.238 16.2526 37.3219 16.2526 36.201ZM12.9464 36.201C12.9464 35.4999 13.5145 34.9318 14.2157 34.9318C14.9168 34.9318 15.4849 35.4999 15.4849 36.201C15.4849 36.9022 14.9168 37.4703 14.2157 37.4703C13.5145 37.4703 12.9464 36.9022 12.9464 36.201Z" fill="#888888"/>
<path d="M27.3169 47.9356C27.3169 47.7257 27.1429 47.5517 26.9331 47.5517H26.2831V39.1378C26.2831 38.9279 26.1091 38.7539 25.8993 38.7539C25.6894 38.7539 25.5154 38.9279 25.5154 39.1378V47.5517H17.4955V39.7673C17.4955 39.5574 17.3215 39.3834 17.1117 39.3834H11.3181C11.1082 39.3834 10.9342 39.5574 10.9342 39.7673V47.5517H2.91433V46.5332C2.91433 46.3234 2.74032 46.1494 2.53048 46.1494C2.32064 46.1494 2.14663 46.3234 2.14663 46.5332V47.5517H1.49664C1.2868 47.5517 1.11279 47.7257 1.11279 47.9356L1.88049 48.3194H26.5492L27.3169 47.9356ZM11.7019 44.7522H12.2496C12.4594 44.7522 12.6334 44.5782 12.6334 44.3683C12.6334 44.1585 12.4594 43.9845 12.2496 43.9845H11.7019V40.1511H16.7227V47.5517H11.7019V44.7522Z" fill="#888888"/>
<path d="M28.8281 45.7074V36.1328" stroke="#888888" stroke-width="1.00785" stroke-linecap="round"/>
<path d="M42.938 35.6291L42.938 30.5898" stroke="#888888" stroke-width="1.00785" stroke-linecap="round"/>
<mask id="path-21-inside-2_533_7521" fill="white">
<path fill-rule="evenodd" clip-rule="evenodd" d="M33.7374 23.3864C34.7911 24.8083 35.297 26.6894 34.993 28.6441C34.8927 29.2889 34.7109 29.8993 34.4608 30.465C34.5142 31.1574 34.4882 31.8852 34.3727 32.6279C33.7954 36.3405 31.1991 39.0191 28.5738 38.6108C26.4162 38.2753 24.9104 35.9592 24.7629 33.0837C23.0042 31.6375 22.0358 29.2259 22.4301 26.6904C22.6942 24.992 23.524 23.5323 24.6788 22.4999C25.6982 19.8261 27.8264 18.0942 29.9741 18.4282C31.9875 18.7413 33.4332 20.7789 33.7374 23.3864Z"/>
</mask>
<path fill-rule="evenodd" clip-rule="evenodd" d="M33.7374 23.3864C34.7911 24.8083 35.297 26.6894 34.993 28.6441C34.8927 29.2889 34.7109 29.8993 34.4608 30.465C34.5142 31.1574 34.4882 31.8852 34.3727 32.6279C33.7954 36.3405 31.1991 39.0191 28.5738 38.6108C26.4162 38.2753 24.9104 35.9592 24.7629 33.0837C23.0042 31.6375 22.0358 29.2259 22.4301 26.6904C22.6942 24.992 23.524 23.5323 24.6788 22.4999C25.6982 19.8261 27.8264 18.0942 29.9741 18.4282C31.9875 18.7413 33.4332 20.7789 33.7374 23.3864Z" fill="#888888"/>
<path d="M33.7374 23.3864L32.7363 23.5032L32.7675 23.7703L32.9276 23.9864L33.7374 23.3864ZM34.4608 30.465L33.539 30.0574L33.4364 30.2895L33.4559 30.5425L34.4608 30.465ZM24.7629 33.0837L25.7694 33.0321L25.7466 32.5878L25.403 32.3052L24.7629 33.0837ZM24.6788 22.4999L25.3505 23.2513L25.5332 23.088L25.6205 22.859L24.6788 22.4999ZM35.9889 28.799C36.3344 26.5776 35.7612 24.4246 34.5472 22.7863L32.9276 23.9864C33.8209 25.1919 34.2597 26.8012 33.9971 28.4893L35.9889 28.799ZM35.3825 30.8726C35.6682 30.2267 35.875 29.5314 35.9889 28.799L33.9971 28.4893C33.9105 29.0465 33.7537 29.5719 33.539 30.0574L35.3825 30.8726ZM35.3686 32.7828C35.4959 31.9643 35.5251 31.1585 35.4656 30.3875L33.4559 30.5425C33.5032 31.1563 33.4805 31.8062 33.3768 32.473L35.3686 32.7828ZM28.4189 39.6067C30.1411 39.8745 31.7563 39.1131 32.9649 37.8661C34.1757 36.6169 35.0517 34.8205 35.3686 32.7828L33.3768 32.473C33.1164 34.1478 32.4055 35.5471 31.5175 36.4632C30.6274 37.3816 29.6317 37.7554 28.7287 37.615L28.4189 39.6067ZM23.7564 33.1353C23.9151 36.229 25.574 39.1643 28.4189 39.6067L28.7287 37.615C27.2584 37.3863 25.9058 35.6893 25.7694 33.0321L23.7564 33.1353ZM21.4342 26.5355C20.9864 29.4148 22.0823 32.1843 24.1228 33.8622L25.403 32.3052C23.926 31.0907 23.0851 29.037 23.426 26.8453L21.4342 26.5355ZM24.0071 21.7486C22.6797 22.9353 21.7344 24.6053 21.4342 26.5355L23.426 26.8453C23.654 25.3788 24.3684 24.1293 25.3505 23.2513L24.0071 21.7486ZM25.6205 22.859C26.562 20.3895 28.3557 19.1964 29.8193 19.4241L30.129 17.4323C27.2972 16.9919 24.8344 19.2627 23.7371 22.1409L25.6205 22.859ZM29.8193 19.4241C31.1924 19.6376 32.4579 21.1168 32.7363 23.5032L34.7385 23.2696C34.4085 20.4411 32.7826 17.845 30.129 17.4323L29.8193 19.4241Z" fill="#888888" mask="url(#path-21-inside-2_533_7521)"/>
<mask id="path-23-inside-3_533_7521" fill="white">
<path fill-rule="evenodd" clip-rule="evenodd" d="M47.8463 17.8454C48.8999 19.2672 49.4059 21.1484 49.1019 23.1031C49.0016 23.7479 48.8198 24.3583 48.5697 24.924C48.6231 25.6164 48.5971 26.3442 48.4816 27.0869C47.9042 30.7994 45.308 33.4781 42.6827 33.0698C40.5251 32.7343 39.0193 30.4181 38.8718 27.5427C37.1131 26.0965 36.1447 23.6849 36.539 21.1494C36.8031 19.451 37.6329 17.9913 38.7877 16.9589C39.8071 14.2851 41.9353 12.5532 44.083 12.8872C46.0964 13.2003 47.5421 15.2379 47.8463 17.8454Z"/>
</mask>
<path fill-rule="evenodd" clip-rule="evenodd" d="M47.8463 17.8454C48.8999 19.2672 49.4059 21.1484 49.1019 23.1031C49.0016 23.7479 48.8198 24.3583 48.5697 24.924C48.6231 25.6164 48.5971 26.3442 48.4816 27.0869C47.9042 30.7994 45.308 33.4781 42.6827 33.0698C40.5251 32.7343 39.0193 30.4181 38.8718 27.5427C37.1131 26.0965 36.1447 23.6849 36.539 21.1494C36.8031 19.451 37.6329 17.9913 38.7877 16.9589C39.8071 14.2851 41.9353 12.5532 44.083 12.8872C46.0964 13.2003 47.5421 15.2379 47.8463 17.8454Z" fill="#888888"/>
<path d="M47.8463 17.8454L46.8452 17.9622L46.8764 18.2293L47.0365 18.4454L47.8463 17.8454ZM48.5697 24.924L47.6479 24.5163L47.5453 24.7484L47.5648 25.0015L48.5697 24.924ZM38.8718 27.5427L39.8783 27.491L39.8555 27.0468L39.5119 26.7642L38.8718 27.5427ZM38.7877 16.9589L39.4594 17.7103L39.6421 17.5469L39.7294 17.3179L38.7877 16.9589ZM50.0978 23.258C50.4433 21.0366 49.87 18.8836 48.656 17.2453L47.0365 18.4454C47.9298 19.6509 48.3685 21.2602 48.106 22.9482L50.0978 23.258ZM49.4914 25.3316C49.777 24.6857 49.9839 23.9904 50.0978 23.258L48.106 22.9482C48.0194 23.5055 47.8626 24.0309 47.6479 24.5163L49.4914 25.3316ZM49.4775 27.2417C49.6048 26.4232 49.634 25.6175 49.5745 24.8465L47.5648 25.0015C47.6121 25.6153 47.5894 26.2651 47.4857 26.932L49.4775 27.2417ZM42.5278 34.0657C44.25 34.3335 45.8652 33.5721 47.0738 32.3251C48.2846 31.0759 49.1606 29.2795 49.4775 27.2417L47.4857 26.932C47.2253 28.6068 46.5144 30.0061 45.6264 30.9222C44.7363 31.8406 43.7406 32.2144 42.8375 32.0739L42.5278 34.0657ZM37.8653 27.5943C38.024 30.688 39.6829 33.6233 42.5278 34.0657L42.8375 32.0739C41.3673 31.8453 40.0147 30.1483 39.8783 27.491L37.8653 27.5943ZM35.5431 20.9945C35.0953 23.8738 36.1912 26.6433 38.2317 28.3211L39.5119 26.7642C38.0349 25.5497 37.194 23.496 37.5349 21.3043L35.5431 20.9945ZM38.116 16.2075C36.7885 17.3942 35.8433 19.0643 35.5431 20.9945L37.5349 21.3043C37.7629 19.8378 38.4772 18.5883 39.4594 17.7103L38.116 16.2075ZM39.7294 17.3179C40.6709 14.8485 42.4645 13.6554 43.9282 13.883L44.2379 11.8913C41.4061 11.4509 38.9433 13.7216 37.8459 16.5999L39.7294 17.3179ZM43.9282 13.883C45.3013 14.0966 46.5668 15.5758 46.8452 17.9622L48.8474 17.7286C48.5173 14.9001 46.8915 12.3039 44.2379 11.8913L43.9282 13.883Z" fill="#888888" mask="url(#path-23-inside-3_533_7521)"/>
<path d="M36.889 46.2129L27.3144 51.2521C26.2225 52.008 22.9806 53.5198 18.7476 53.5198C14.5146 53.5198 6.23346 53.5198 4.6377 53.5198" stroke="#888888" stroke-width="1.00785" stroke-linecap="round"/>
<path d="M36.3844 42.6836L26.8099 47.7228C25.718 48.4787 22.4761 49.9905 18.2431 49.9905C14.0101 49.9905 8.7525 49.9905 7.15674 49.9905" stroke="#888888" stroke-width="1.00785" stroke-linecap="round"/>
<path d="M153.585 44.9531L170.661 54.6957C172.338 55.7315 176.553 57.8032 180.003 57.8032C183.452 57.8032 193.896 57.8032 198.686 57.8032" stroke="#888888" stroke-width="1.00785" stroke-linecap="round"/>
<path d="M173.382 33.7986H173.633L175.977 27.483C176.182 26.9303 176.714 26.5566 177.308 26.5566H193.859C194.448 26.5566 194.985 26.9303 195.19 27.483L197.534 33.7986H197.785C198.281 33.7986 198.686 34.2029 198.686 34.6994V35.421C198.686 35.9174 198.281 36.3218 197.785 36.3218H197.652V44.7357C197.652 44.9456 197.478 45.1196 197.268 45.1196C197.058 45.1196 196.884 44.9456 196.884 44.7357V36.3218H190.855C190.517 36.3218 190.2 36.1887 189.964 35.9533L185.583 31.5723L181.202 35.9533C180.962 36.1938 180.645 36.3218 180.312 36.3218H174.283V37.3402C174.283 37.5501 174.109 37.7241 173.899 37.7241C173.689 37.7241 173.515 37.5501 173.515 37.3402V36.3218H173.382C172.886 36.3218 172.481 35.9174 172.481 35.421V34.6994C172.481 34.2029 172.886 33.7986 173.382 33.7986ZM194.468 27.7491C194.376 27.4932 194.131 27.3243 193.859 27.3243H177.308C177.036 27.3243 176.791 27.4932 176.699 27.7491L174.452 33.7935H179.785L184.688 28.8904C184.928 28.6499 185.246 28.5219 185.578 28.5219C185.911 28.5219 186.233 28.655 186.469 28.8904L191.372 33.7935H196.715L194.468 27.7491ZM173.249 35.421C173.249 35.4927 173.311 35.5541 173.382 35.5541H180.312C180.445 35.5541 180.568 35.5029 180.66 35.4108L185.312 30.7585C185.384 30.6869 185.481 30.6459 185.583 30.6459C185.686 30.6459 185.783 30.6869 185.855 30.7585L190.507 35.4108C190.599 35.5029 190.727 35.5541 190.855 35.5541H197.785C197.856 35.5541 197.918 35.4927 197.918 35.421V34.6994C197.918 34.6277 197.856 34.5663 197.785 34.5663H191.224C191.121 34.5663 191.024 34.5254 190.952 34.4537L185.937 29.4381C185.844 29.3459 185.717 29.2948 185.589 29.2948C185.461 29.2948 185.333 29.3459 185.241 29.4381L180.225 34.4537C180.153 34.5254 180.056 34.5663 179.954 34.5663H173.392C173.321 34.5663 173.259 34.6277 173.259 34.6994L173.249 35.421Z" fill="#888888"/>
<path d="M175.603 46.9728C175.393 46.9728 175.219 46.7988 175.219 46.5889V39.7667C175.219 39.5568 175.393 39.3828 175.603 39.3828H180.772C180.982 39.3828 181.156 39.5568 181.156 39.7667V46.5889C181.156 46.7988 180.982 46.9728 180.772 46.9728H175.603ZM175.987 44.552H177.804V42.7351H175.987V44.552ZM178.572 44.552H180.389V42.7351H178.572V44.552ZM175.987 46.2051H180.389V45.3197H175.987V46.2051ZM175.987 41.9674H177.804V40.1505H175.987V41.9674ZM178.572 40.1505V41.9674H180.389V40.1505H178.572Z" fill="#888888"/>
<path d="M190.389 46.9728C190.179 46.9728 190.005 46.7988 190.005 46.5889V39.7667C190.005 39.5568 190.179 39.3828 190.389 39.3828H195.563C195.773 39.3828 195.947 39.5568 195.947 39.7667V46.5889C195.947 46.7988 195.773 46.9728 195.563 46.9728H190.389ZM190.773 44.552H192.595V42.7351H190.778V44.552H190.773ZM193.363 44.552H195.18V42.7351H193.363V44.552ZM190.773 46.2051H195.174V45.3197H190.773V46.2051ZM190.773 41.9674H192.595V40.1505H190.778V41.9674H190.773ZM193.363 40.1505V41.9674H195.18V40.1505H193.363Z" fill="#888888"/>
<path d="M184.345 41.0352H186.827C187.037 41.0352 187.211 41.2092 187.211 41.419V43.0721C187.211 43.282 187.037 43.456 186.827 43.456H184.345C184.135 43.456 183.961 43.282 183.961 43.0721V41.419C183.961 41.2092 184.13 41.0352 184.345 41.0352ZM184.729 42.6883H186.443V41.8029H184.729V42.6883Z" fill="#888888"/>
<path d="M183.546 36.201C183.546 35.0751 184.462 34.1641 185.583 34.1641C186.704 34.1641 187.62 35.0802 187.62 36.201C187.62 37.3219 186.704 38.238 185.583 38.238C184.462 38.238 183.546 37.3219 183.546 36.201ZM186.852 36.201C186.852 35.4999 186.284 34.9318 185.583 34.9318C184.882 34.9318 184.314 35.4999 184.314 36.201C184.314 36.9022 184.882 37.4703 185.583 37.4703C186.284 37.4703 186.852 36.9022 186.852 36.201Z" fill="#888888"/>
<path d="M172.481 47.9356C172.481 47.7257 172.655 47.5517 172.865 47.5517H173.515V39.1378C173.515 38.9279 173.689 38.7539 173.899 38.7539C174.109 38.7539 174.283 38.9279 174.283 39.1378V47.5517H182.303V39.7673C182.303 39.5574 182.477 39.3834 182.687 39.3834H188.48C188.69 39.3834 188.864 39.5574 188.864 39.7673V47.5517H196.884V46.5332C196.884 46.3234 197.058 46.1494 197.268 46.1494C197.478 46.1494 197.652 46.3234 197.652 46.5332V47.5517H198.302C198.512 47.5517 198.686 47.7257 198.686 47.9356L197.918 48.3194H173.249L172.481 47.9356ZM188.096 44.7522H187.549C187.339 44.7522 187.165 44.5782 187.165 44.3683C187.165 44.1585 187.339 43.9845 187.549 43.9845H188.096V40.1511H183.076V47.5517H188.096V44.7522Z" fill="#888888"/>
<path d="M170.97 45.7074V36.1328" stroke="#888888" stroke-width="1.00785" stroke-linecap="round"/>
<path d="M156.859 35.6291L156.859 30.5898" stroke="#888888" stroke-width="1.00785" stroke-linecap="round"/>
<mask id="path-36-inside-4_533_7521" fill="white">
<path fill-rule="evenodd" clip-rule="evenodd" d="M166.059 23.3881C165.006 24.8098 164.501 26.6903 164.805 28.6443C164.905 29.2884 165.087 29.8981 165.336 30.4633C165.283 31.1562 165.309 31.8847 165.424 32.628C166.002 36.3406 168.598 39.0193 171.223 38.611C173.381 38.2755 174.886 35.9598 175.034 33.0847C176.793 31.6386 177.762 29.2265 177.368 26.6906C177.104 24.9915 176.273 23.5312 175.118 22.4988C174.098 19.8257 171.97 18.0944 169.823 18.4283C167.809 18.7415 166.363 20.7799 166.059 23.3881Z"/>
</mask>
<path fill-rule="evenodd" clip-rule="evenodd" d="M166.059 23.3881C165.006 24.8098 164.501 26.6903 164.805 28.6443C164.905 29.2884 165.087 29.8981 165.336 30.4633C165.283 31.1562 165.309 31.8847 165.424 32.628C166.002 36.3406 168.598 39.0193 171.223 38.611C173.381 38.2755 174.886 35.9598 175.034 33.0847C176.793 31.6386 177.762 29.2265 177.368 26.6906C177.104 24.9915 176.273 23.5312 175.118 22.4988C174.098 19.8257 171.97 18.0944 169.823 18.4283C167.809 18.7415 166.363 20.7799 166.059 23.3881Z" fill="#888888"/>
<path d="M166.059 23.3881L167.06 23.5047L167.029 23.7718L166.869 23.9879L166.059 23.3881ZM165.336 30.4633L166.258 30.0559L166.361 30.288L166.341 30.541L165.336 30.4633ZM175.034 33.0847L174.027 33.033L174.05 32.5886L174.394 32.3061L175.034 33.0847ZM175.118 22.4988L174.446 23.2503L174.263 23.087L174.176 22.8579L175.118 22.4988ZM163.809 28.7992C163.464 26.5785 164.036 24.4263 165.249 22.7883L166.869 23.9879C165.977 25.1933 165.538 26.802 165.801 28.4894L163.809 28.7992ZM164.414 30.8706C164.129 30.2253 163.923 29.5307 163.809 28.7992L165.801 28.4894C165.887 29.046 166.044 29.5709 166.258 30.0559L164.414 30.8706ZM164.428 32.7829C164.301 31.9637 164.272 31.1572 164.331 30.3855L166.341 30.541C166.294 31.1553 166.316 31.8057 166.42 32.4732L164.428 32.7829ZM171.378 39.6069C169.656 39.8747 168.041 39.1133 166.832 37.8663C165.621 36.617 164.745 34.8206 164.428 32.7829L166.42 32.4732C166.681 34.148 167.391 35.5472 168.279 36.4634C169.17 37.3818 170.165 37.7555 171.068 37.6151L171.378 39.6069ZM176.04 33.1364C175.881 36.2297 174.223 39.1645 171.378 39.6069L171.068 37.6151C172.538 37.3865 173.891 35.6898 174.027 33.033L176.04 33.1364ZM178.364 26.5357C178.812 29.4155 177.715 32.1855 175.674 33.8633L174.394 32.3061C175.872 31.0917 176.713 29.0376 176.372 26.8454L178.364 26.5357ZM175.789 21.7472C177.117 22.934 178.063 24.6046 178.364 26.5357L176.372 26.8454C176.144 25.3783 175.429 24.1284 174.446 23.2503L175.789 21.7472ZM174.176 22.8579C173.234 20.3893 171.441 19.1966 169.978 19.4242L169.668 17.4324C172.499 16.9921 174.962 19.2621 176.059 22.1396L174.176 22.8579ZM169.978 19.4242C168.604 19.6378 167.338 21.1176 167.06 23.5047L165.058 23.2715C165.388 20.4422 167.014 17.8452 169.668 17.4324L169.978 19.4242Z" fill="#888888" mask="url(#path-36-inside-4_533_7521)"/>
<mask id="path-38-inside-5_533_7521" fill="white">
<path fill-rule="evenodd" clip-rule="evenodd" d="M151.95 17.8471C150.897 19.2688 150.392 21.1492 150.695 23.1033C150.796 23.7473 150.977 24.3571 151.227 24.9222C151.173 25.6152 151.199 26.3437 151.315 27.087C151.892 30.7996 154.488 33.4782 157.114 33.07C159.271 32.7345 160.777 30.4187 160.925 27.5437C162.684 26.0976 163.653 23.6855 163.258 21.1496C162.994 19.4504 162.164 17.9902 161.008 16.9577C159.989 14.2847 157.861 12.5534 155.713 12.8873C153.7 13.2005 152.254 15.2389 151.95 17.8471Z"/>
</mask>
<path fill-rule="evenodd" clip-rule="evenodd" d="M151.95 17.8471C150.897 19.2688 150.392 21.1492 150.695 23.1033C150.796 23.7473 150.977 24.3571 151.227 24.9222C151.173 25.6152 151.199 26.3437 151.315 27.087C151.892 30.7996 154.488 33.4782 157.114 33.07C159.271 32.7345 160.777 30.4187 160.925 27.5437C162.684 26.0976 163.653 23.6855 163.258 21.1496C162.994 19.4504 162.164 17.9902 161.008 16.9577C159.989 14.2847 157.861 12.5534 155.713 12.8873C153.7 13.2005 152.254 15.2389 151.95 17.8471Z" fill="#888888"/>
<path d="M151.95 17.8471L152.951 17.9637L152.92 18.2308L152.76 18.4469L151.95 17.8471ZM151.227 24.9222L152.149 24.5149L152.251 24.747L152.232 25L151.227 24.9222ZM160.925 27.5437L159.918 27.4919L159.941 27.0476L160.285 26.7651L160.925 27.5437ZM161.008 16.9577L160.337 17.7093L160.154 17.546L160.067 17.3169L161.008 16.9577ZM149.7 23.2581C149.354 21.0375 149.927 18.8853 151.14 17.2473L152.76 18.4469C151.867 19.6522 151.429 21.261 151.691 22.9484L149.7 23.2581ZM150.305 25.3296C150.02 24.6843 149.813 23.9897 149.7 23.2581L151.691 22.9484C151.778 23.505 151.934 24.0299 152.149 24.5149L150.305 25.3296ZM150.319 27.2419C150.192 26.4226 150.162 25.6162 150.222 24.8445L152.232 25C152.184 25.6143 152.207 26.2647 152.311 26.9322L150.319 27.2419ZM157.269 34.0658C155.546 34.3337 153.931 33.5723 152.723 32.3253C151.512 31.076 150.636 29.2796 150.319 27.2419L152.311 26.9322C152.571 28.607 153.282 30.0062 154.17 30.9224C155.06 31.8408 156.056 32.2145 156.959 32.0741L157.269 34.0658ZM161.931 27.5954C161.772 30.6887 160.113 33.6235 157.269 34.0658L156.959 32.0741C158.429 31.8455 159.781 30.1488 159.918 27.4919L161.931 27.5954ZM164.254 20.9947C164.702 23.8745 163.606 26.6445 161.565 28.3223L160.285 26.7651C161.762 25.5506 162.603 23.4966 162.263 21.3044L164.254 20.9947ZM161.68 16.2062C163.008 17.393 163.954 19.0636 164.254 20.9947L162.263 21.3044C162.034 19.8373 161.32 18.5874 160.337 17.7093L161.68 16.2062ZM160.067 17.3169C159.125 14.8483 157.332 13.6556 155.868 13.8832L155.559 11.8914C158.39 11.4511 160.852 13.7211 161.95 16.5986L160.067 17.3169ZM155.868 13.8832C154.495 14.0968 153.229 15.5766 152.951 17.9637L150.949 17.7305C151.278 14.9012 152.904 12.3042 155.559 11.8914L155.868 13.8832Z" fill="#888888" mask="url(#path-38-inside-5_533_7521)"/>
<path d="M162.908 46.2129L172.483 51.2521C173.575 52.008 176.817 53.5198 181.05 53.5198C185.283 53.5198 193.777 53.5198 195.373 53.5198" stroke="#888888" stroke-width="1.00785" stroke-linecap="round"/>
<path d="M163.412 42.6836L172.987 47.7228C174.078 48.4787 177.32 49.9905 181.553 49.9905C185.786 49.9905 191.044 49.9905 192.64 49.9905" stroke="#888888" stroke-width="1.00785" stroke-linecap="round"/>
<path opacity="0.4" d="M102.158 18.2539H96.8557C96.3739 18.2539 95.9822 18.6456 95.9822 19.1274V27.7879C95.9822 28.2694 96.3739 28.6614 96.8557 28.6614H102.158C102.639 28.6614 103.031 28.2694 103.031 27.7879V19.1274C103.031 18.6456 102.639 18.2539 102.158 18.2539ZM98.9824 27.6132H97.0304V25.4699H98.9824V27.6132ZM98.9824 24.4217H97.0304V22.4934H98.9824V24.4217ZM98.9824 21.4452H97.0304V19.3021H98.9824V21.4452ZM101.983 27.6132H100.031V25.4699H101.983V27.6132ZM101.983 24.4217H100.031V22.4934H101.983V24.4217ZM101.983 21.4452H100.031V19.3021H101.983V21.4452Z" fill="#888888"/>
<path opacity="0.4" d="M109.187 39.1797C108.897 39.1797 108.663 39.4144 108.663 39.7038V40.9622C108.663 41.2515 108.897 41.4863 109.187 41.4863C109.476 41.4863 109.711 41.2515 109.711 40.9622V39.7038C109.711 39.4144 109.476 39.1797 109.187 39.1797Z" fill="#888888"/>
<path opacity="0.4" d="M123.055 33.8861C123.031 33.7022 122.937 33.5381 122.79 33.4245L111.687 24.8334C111.44 24.6431 111.146 24.5424 110.835 24.5424C110.525 24.5424 110.23 24.6431 109.984 24.8336L108.304 26.133V24.6278C108.304 24.3382 108.07 24.1037 107.78 24.1037C107.491 24.1037 107.256 24.3382 107.256 24.6278V26.944L98.881 33.4243C98.7353 33.5367 98.6384 33.7063 98.6154 33.8883C98.5917 34.0726 98.6411 34.2555 98.7544 34.4031L99.6041 35.5084C99.7376 35.6812 99.9391 35.7803 100.157 35.7803C100.311 35.7803 100.462 35.7287 100.584 35.6345L110.835 27.7026L118.584 33.6981V44.6179H114.363V43.6353C114.363 43.3456 114.129 43.1112 113.839 43.1112C113.549 43.1112 113.315 43.3456 113.315 43.6353V44.6179H108.355V36.5888H113.315V41.172C113.315 41.4616 113.549 41.6961 113.839 41.6961C114.129 41.6961 114.363 41.4616 114.363 41.172V36.4141C114.363 35.9326 113.971 35.5406 113.49 35.5406H108.181C107.699 35.5406 107.307 35.9326 107.307 36.4141V44.6179H103.324V43.1884C103.324 42.7066 102.933 42.3149 102.451 42.3149H101.949C101.991 42.1063 102.014 41.891 102.014 41.6704C102.014 39.8565 100.538 38.3809 98.7238 38.3809C97.7392 38.3809 96.8179 38.8326 96.2018 39.5653C95.9687 39.4916 95.7209 39.4514 95.4637 39.4514C95.2748 39.4514 95.0892 39.4725 94.9088 39.5145C94.338 38.5367 93.2729 37.9078 92.1215 37.9078C91.9989 37.9078 91.8777 37.9154 91.7582 37.9294V20.3856L99.5072 14.3896L107.257 20.3856V22.1817C107.257 22.4714 107.491 22.7058 107.781 22.7058C108.07 22.7058 108.305 22.4714 108.305 22.1817V21.1966L109.759 22.3218C109.881 22.416 110.032 22.4675 110.186 22.4675C110.404 22.4675 110.606 22.3682 110.739 22.1951C110.741 22.1927 110.743 22.1899 110.745 22.1875L111.559 21.088L111.564 21.0814C111.618 21.014 111.76 20.8352 111.727 20.5734C111.703 20.3886 111.608 20.2246 111.462 20.1118L100.359 11.5206C100.112 11.3304 99.8181 11.2297 99.5072 11.2297C99.1963 11.2297 98.902 11.3304 98.6556 11.5209L95.607 13.8796V13.2191C96.0192 13.1492 96.3342 12.7905 96.3342 12.3589V11.311C96.3342 10.8292 95.9422 10.4375 95.4607 10.4375H91.2136C90.7321 10.4375 90.3401 10.8292 90.3401 11.311V12.3587C90.3401 12.7905 90.6551 13.1489 91.0673 13.2191V17.3922L87.5536 20.111C87.4073 20.2235 87.3104 20.3932 87.2874 20.5748C87.2634 20.7593 87.3126 20.9422 87.4261 21.0901L88.2759 22.1954C88.4091 22.3685 88.6105 22.4675 88.8289 22.4675C88.9823 22.4675 89.1335 22.416 89.2558 22.3218L90.7099 21.1966V38.2376C89.8779 38.647 89.2373 39.4059 88.9992 40.3315C88.209 40.6361 87.6661 41.4037 87.6661 42.275C87.6661 42.3711 87.6729 42.4656 87.6854 42.5584C87.5192 42.7175 87.4155 42.9408 87.4155 43.1884V44.7929C87.4155 45.2744 87.8072 45.6664 88.289 45.6664H121.152C121.441 45.6664 121.676 45.4317 121.676 45.1423C121.676 44.8527 121.441 44.6182 121.152 44.6182H119.632V34.5091L121.087 35.6345C121.209 35.7284 121.36 35.7803 121.514 35.7803C121.732 35.7803 121.934 35.6809 122.067 35.5076C122.069 35.5051 122.071 35.5027 122.073 35.5002L122.887 34.4004L122.892 34.3936C122.946 34.3264 123.088 34.1476 123.055 33.8861ZM98.7238 39.4291C99.9598 39.4291 100.965 40.4347 100.965 41.6704C100.965 41.8945 100.932 42.1107 100.87 42.3149H97.8806C97.9033 42.1817 97.9158 42.0447 97.9158 41.9049C97.9158 41.1938 97.6114 40.5529 97.1269 40.1041C97.5413 39.6835 98.1145 39.4291 98.7238 39.4291ZM91.3883 11.4857H95.286V12.184H91.3883V11.4857ZM94.5588 13.2322V14.6906L92.1155 16.5812V13.2322H94.5588ZM88.8925 21.2777L88.4697 20.7276L99.2968 12.3499C99.3587 12.3022 99.4294 12.2779 99.5072 12.2779C99.585 12.2779 99.6557 12.3022 99.7174 12.3497L110.53 20.7159L110.117 21.2736L99.828 13.3124C99.6391 13.1664 99.3754 13.1664 99.1865 13.3124L88.8925 21.2777ZM102.276 44.6182H88.4637V43.3631H93.2914C93.5808 43.3631 93.8155 43.1286 93.8155 42.839C93.8155 42.5494 93.5808 42.3149 93.2914 42.3149H88.7156C88.7151 42.3015 88.7143 42.2884 88.7143 42.275C88.7143 41.7807 89.0656 41.3535 89.5501 41.2596C89.7693 41.217 89.9374 41.0404 89.9691 40.8196C90.122 39.7574 91.0473 38.9563 92.1215 38.9563C93.0135 38.9563 93.8292 39.5161 94.151 40.3492C94.2034 40.4852 94.3099 40.593 94.4453 40.6473C94.5807 40.7014 94.7322 40.6965 94.864 40.6342C95.0524 40.5452 95.2544 40.4999 95.4637 40.4999C96.2379 40.4999 96.8676 41.1302 96.8676 41.9052C96.8676 42.0479 96.8452 42.1852 96.8054 42.3149H95.8071C95.5175 42.3149 95.283 42.5497 95.283 42.839C95.283 43.1286 95.5175 43.3631 95.8071 43.3631H102.276V44.6182ZM121.445 34.5863L111.156 26.6254C110.967 26.4791 110.704 26.4791 110.515 26.6254L100.22 34.5904L99.7977 34.0404L110.625 25.6629C110.687 25.6149 110.758 25.5906 110.835 25.5906C110.913 25.5906 110.984 25.6149 111.046 25.6627L121.858 34.0286L121.445 34.5863Z" fill="#888888"/>
<path d="M36.3846 15.2266H19.2511L16.9834 22.7854" stroke="#888888" stroke-width="1.00785" stroke-linecap="round" stroke-linejoin="round"/>
<path d="M163.626 15.2266H181.012L183.279 22.7854" stroke="#888888" stroke-width="1.00785" stroke-linecap="round" stroke-linejoin="round"/>
</svg>
