<svg width="200" height="70" viewBox="0 0 200 70" fill="none" xmlns="http://www.w3.org/2000/svg">
<path d="M65.7734 54.685H94.1079M118.362 39.7246H123.349L135.816 48.7915M126.069 46.5248L123.349 44.2581H120.176" stroke="#888888" stroke-width="0.906695" stroke-linecap="round" stroke-linejoin="round"/>
<path d="M126.069 54.6836H135.589" stroke="#888888" stroke-width="0.906695" stroke-linecap="round"/>
<path d="M123.123 44.0313V39.9512" stroke="#888888" stroke-width="0.906695" stroke-linecap="round"/>
<path d="M113.602 54.6843V49.2441H135.589V54.6843" stroke="#888888" stroke-width="0.906695" stroke-linecap="round"/>
<path d="M77.1069 48.3382V39.7246" stroke="#888888" stroke-width="1.36004" stroke-linecap="round"/>
<path d="M58.9727 54.2307V45.6172" stroke="#888888" stroke-width="0.906695" stroke-linecap="round"/>
<path d="M107.029 58.3091H56.2532C53.3065 58.2336 48.5009 57.3571 52.8531 54.4557C57.2053 51.5543 65.1692 44.2554 69.6272 41.082M115.416 58.3091H141.257C144.128 58.4602 148.646 57.9011 143.75 54.4557C138.854 51.0103 130.905 45.1621 126.976 42.2154M65.547 54.4557V49.0156H106.122V54.4557" stroke="#888888" stroke-width="0.906695" stroke-linecap="round" stroke-linejoin="round"/>
<rect width="5.44017" height="5.44017" transform="matrix(0.707111 0.707102 -0.707111 0.707102 59.1924 38.3613)" stroke="#888888" stroke-width="0.906695" stroke-linejoin="round"/>
<path d="M65.5469 49.2416L79.8274 38.3613H87.9877" stroke="#888888" stroke-width="0.906695" stroke-linecap="round"/>
<mask id="path-10-inside-1_533_7520" fill="white">
<path fill-rule="evenodd" clip-rule="evenodd" d="M75.5838 28.3616C77.4806 27.7186 79.3856 27.8625 80.8006 28.9416C81.2662 29.2967 81.6483 29.7297 81.9471 30.2222C82.559 30.424 83.1463 30.7284 83.6848 31.1391C86.3726 33.1887 86.8283 37.1098 84.7027 39.897C82.9564 42.187 80.011 42.9992 77.525 42.0795C75.1272 43.5053 72.4654 43.6799 70.629 42.2795C69.3988 41.3413 68.7522 39.8589 68.6821 38.1738C67.1592 36.0215 67.1714 32.9843 68.9095 30.7051C70.5393 28.568 73.2134 27.7179 75.5838 28.3616Z"/>
</mask>
<path fill-rule="evenodd" clip-rule="evenodd" d="M75.5838 28.3616C77.4806 27.7186 79.3856 27.8625 80.8006 28.9416C81.2662 29.2967 81.6483 29.7297 81.9471 30.2222C82.559 30.424 83.1463 30.7284 83.6848 31.1391C86.3726 33.1887 86.8283 37.1098 84.7027 39.897C82.9564 42.187 80.011 42.9992 77.525 42.0795C75.1272 43.5053 72.4654 43.6799 70.629 42.2795C69.3988 41.3413 68.7522 39.8589 68.6821 38.1738C67.1592 36.0215 67.1714 32.9843 68.9095 30.7051C70.5393 28.568 73.2134 27.7179 75.5838 28.3616Z" fill="#888888"/>
<path d="M75.5838 28.3616L75.3462 29.2366L75.6131 29.3091L75.875 29.2203L75.5838 28.3616ZM81.9471 30.2222L81.1719 30.6925L81.3454 30.9785L81.6631 31.0833L81.9471 30.2222ZM77.525 42.0795L77.8396 41.2291L77.4337 41.0789L77.0616 41.3002L77.525 42.0795ZM68.6821 38.1738L69.588 38.1361L69.5769 37.8686L69.4223 37.6501L68.6821 38.1738ZM81.3504 28.2206C79.6329 26.9108 77.3916 26.7914 75.2927 27.5029L75.875 29.2203C77.5696 28.6458 79.1383 28.8142 80.2508 29.6625L81.3504 28.2206ZM82.7223 29.7519C82.3672 29.1667 81.91 28.6474 81.3504 28.2206L80.2508 29.6625C80.6224 29.946 80.9293 30.2927 81.1719 30.6925L82.7223 29.7519ZM84.2347 30.4181C83.6146 29.9452 82.9372 29.594 82.231 29.3611L81.6631 31.0833C82.1809 31.254 82.678 31.5115 83.135 31.86L84.2347 30.4181ZM85.4237 40.4469C87.8339 37.2863 87.3451 32.7901 84.2347 30.4181L83.135 31.86C85.4001 33.5873 85.8227 36.9332 83.9818 39.3472L85.4237 40.4469ZM77.2104 42.9298C80.0774 43.9905 83.4405 43.0475 85.4237 40.4469L83.9818 39.3472C82.4723 41.3265 79.9446 42.0079 77.8396 41.2291L77.2104 42.9298ZM70.0792 43.0005C72.3138 44.7045 75.4023 44.3966 77.9884 42.8588L77.0616 41.3002C74.852 42.614 72.617 42.6553 71.1788 41.5585L70.0792 43.0005ZM67.7762 38.2115C67.8548 40.1017 68.5882 41.8635 70.0792 43.0005L71.1788 41.5585C70.2093 40.8192 69.6496 39.6161 69.588 38.1361L67.7762 38.2115ZM69.4223 37.6501C68.1326 35.8274 68.1282 33.2248 69.6304 31.2549L68.1885 30.1553C66.2145 32.7437 66.1859 36.2156 67.9419 38.6975L69.4223 37.6501ZM69.6304 31.2549C71.0385 29.4086 73.3347 28.6904 75.3462 29.2366L75.8214 27.4866C73.0921 26.7455 70.0401 27.7273 68.1885 30.1553L69.6304 31.2549Z" fill="#888888" mask="url(#path-10-inside-1_533_7520)"/>
<path d="M55.8003 42.8965L34.7713 55.5146C33.2629 56.4465 29.4702 58.3102 26.3671 58.3102C23.2639 58.3102 13.8684 58.3102 9.55851 58.3102" stroke="#888888" stroke-width="1.36004" stroke-linecap="round"/>
<path d="M32.3237 36.7162H32.0981L29.9893 31.0345C29.8051 30.5373 29.3263 30.2012 28.7922 30.2012H13.9017C13.3722 30.2012 12.8888 30.5373 12.7046 31.0345L10.5958 36.7162H10.3702C9.92356 36.7162 9.55981 37.08 9.55981 37.5266V38.1758C9.55981 38.6224 9.92356 38.9861 10.3702 38.9861H10.4899V46.5556C10.4899 46.7444 10.6464 46.9009 10.8352 46.9009C11.024 46.9009 11.1805 46.7444 11.1805 46.5556V38.9861H16.6045C16.9083 38.9861 17.1938 38.8664 17.4056 38.6546L21.3469 34.7134L25.2883 38.6546C25.5047 38.871 25.7901 38.9861 26.0894 38.9861H31.5133V39.9024C31.5133 40.0912 31.6699 40.2477 31.8587 40.2477C32.0474 40.2477 32.204 40.0912 32.204 39.9024V38.9861H32.3237C32.7703 38.9861 33.1341 38.6224 33.1341 38.1758V37.5266C33.1341 37.08 32.7703 36.7162 32.3237 36.7162ZM13.3538 31.274C13.4367 31.0438 13.6577 30.8918 13.9017 30.8918H28.7922C29.0362 30.8918 29.2572 31.0438 29.3401 31.274L31.3614 36.7116H26.5637L22.1527 32.3007C21.9363 32.0843 21.6508 31.9692 21.3515 31.9692C21.0523 31.9692 20.7622 32.0889 20.5504 32.3007L16.1394 36.7116H11.3325L13.3538 31.274ZM32.4434 38.1758C32.4434 38.2402 32.3882 38.2955 32.3237 38.2955H26.0894C25.9697 38.2955 25.8592 38.2495 25.7763 38.1666L21.591 33.9813C21.5265 33.9168 21.439 33.88 21.3469 33.88C21.2548 33.88 21.1674 33.9168 21.1029 33.9813L16.9176 38.1666C16.8347 38.2495 16.7196 38.2955 16.6045 38.2955H10.3702C10.3057 38.2955 10.2505 38.2402 10.2505 38.1758V37.5266C10.2505 37.4621 10.3057 37.4069 10.3702 37.4069H16.2729C16.365 37.4069 16.4525 37.37 16.517 37.3056L21.0292 32.7934C21.1121 32.7105 21.2272 32.6645 21.3423 32.6645C21.4574 32.6645 21.5725 32.7105 21.6554 32.7934L26.1677 37.3056C26.2321 37.37 26.3196 37.4069 26.4117 37.4069H32.3145C32.3789 37.4069 32.4342 37.4621 32.4342 37.5266L32.4434 38.1758Z" fill="#888888"/>
<path d="M34.4934 47.43V38.8164" stroke="#888888" stroke-width="0.906695" stroke-linecap="round"/>
<path d="M47.1877 38.3616L47.1877 33.8281" stroke="#888888" stroke-width="0.906695" stroke-linecap="round"/>
<mask id="path-16-inside-2_533_7520" fill="white">
<path fill-rule="evenodd" clip-rule="evenodd" d="M38.911 27.3556C39.8588 28.6347 40.3138 30.3269 40.0404 32.0853C39.9503 32.6649 39.7869 33.2135 39.5622 33.722C39.6103 34.3453 39.587 35.0005 39.4831 35.6691C38.9636 39.0091 36.6279 41.4188 34.2661 41.0516C32.3252 40.7497 30.9707 38.6664 30.8377 36.0799C29.255 34.7789 28.3835 32.6091 28.7383 30.3277C28.9759 28.7998 29.7224 27.4866 30.7612 26.5579C31.6783 24.1522 33.5931 22.5938 35.5253 22.8943C37.3368 23.176 38.6375 25.0095 38.911 27.3556Z"/>
</mask>
<path fill-rule="evenodd" clip-rule="evenodd" d="M38.911 27.3556C39.8588 28.6347 40.3138 30.3269 40.0404 32.0853C39.9503 32.6649 39.7869 33.2135 39.5622 33.722C39.6103 34.3453 39.587 35.0005 39.4831 35.6691C38.9636 39.0091 36.6279 41.4188 34.2661 41.0516C32.3252 40.7497 30.9707 38.6664 30.8377 36.0799C29.255 34.7789 28.3835 32.6091 28.7383 30.3277C28.9759 28.7998 29.7224 27.4866 30.7612 26.5579C31.6783 24.1522 33.5931 22.5938 35.5253 22.8943C37.3368 23.176 38.6375 25.0095 38.911 27.3556Z" fill="#888888"/>
<path d="M38.911 27.3556L38.0104 27.4606L38.0384 27.701L38.1825 27.8954L38.911 27.3556ZM39.5622 33.722L38.7329 33.3555L38.6406 33.5643L38.6582 33.7919L39.5622 33.722ZM30.8377 36.0799L31.7432 36.0334L31.7227 35.6336L31.4135 35.3795L30.8377 36.0799ZM30.7612 26.5579L31.3656 27.2338L31.5299 27.0869L31.6085 26.8808L30.7612 26.5579ZM40.9363 32.2247C41.2471 30.2263 40.7315 28.2896 39.6395 26.8158L38.1825 27.8954C38.986 28.9799 39.3806 30.4275 39.1445 31.946L40.9363 32.2247ZM40.3915 34.0886C40.6481 33.5079 40.8339 32.8829 40.9363 32.2247L39.1445 31.946C39.0666 32.4468 38.9257 32.9191 38.7329 33.3555L40.3915 34.0886ZM40.379 35.8085C40.4936 35.0716 40.5198 34.3462 40.4662 33.6522L38.6582 33.7919C38.7009 34.3445 38.6805 34.9295 38.5871 35.5298L40.379 35.8085ZM34.1268 41.9475C35.6762 42.1884 37.1292 41.5034 38.2165 40.3816C39.3058 39.2577 40.0939 37.6417 40.379 35.8085L38.5871 35.5298C38.3528 37.0365 37.7133 38.2953 36.9144 39.1195C36.1136 39.9457 35.2179 40.282 34.4054 40.1556L34.1268 41.9475ZM29.9322 36.1264C30.0753 38.9093 31.5676 41.5495 34.1268 41.9475L34.4054 40.1556C33.0828 39.9499 31.8661 38.4236 31.7432 36.0334L29.9322 36.1264ZM27.8424 30.1884C27.4395 32.779 28.4257 35.2709 30.262 36.7803L31.4135 35.3795C30.0843 34.2869 29.3275 32.4391 29.6342 30.467L27.8424 30.1884ZM30.1569 25.8819C28.9628 26.9495 28.1124 28.4519 27.8424 30.1884L29.6342 30.467C29.8394 29.1477 30.482 28.0237 31.3656 27.2338L30.1569 25.8819ZM31.6085 26.8808C32.4554 24.659 34.0692 23.5855 35.386 23.7903L35.6647 21.9984C33.1169 21.6022 30.9011 23.6453 29.914 26.235L31.6085 26.8808ZM35.386 23.7903C36.6214 23.9824 37.7601 25.3134 38.0104 27.4606L39.8116 27.2506C39.5149 24.7057 38.0522 22.3697 35.6647 21.9984L35.386 23.7903Z" fill="#888888" mask="url(#path-16-inside-2_533_7520)"/>
<mask id="path-18-inside-3_533_7520" fill="white">
<path fill-rule="evenodd" clip-rule="evenodd" d="M51.6034 22.3693C52.5511 23.6484 53.0062 25.3406 52.7328 27.099C52.6426 27.6785 52.4793 28.2272 52.2545 28.7357C52.3027 29.359 52.2794 30.0142 52.1754 30.6828C51.656 34.0227 49.3203 36.4325 46.9585 36.0652C45.0176 35.7634 43.6631 33.6801 43.5301 31.0936C41.9474 29.7926 41.0759 27.6227 41.4307 25.3414C41.6683 23.8135 42.4148 22.5003 43.4536 21.5716C44.3706 19.1658 46.2854 17.6075 48.2177 17.908C50.0292 18.1897 51.3299 20.0232 51.6034 22.3693Z"/>
</mask>
<path fill-rule="evenodd" clip-rule="evenodd" d="M51.6034 22.3693C52.5511 23.6484 53.0062 25.3406 52.7328 27.099C52.6426 27.6785 52.4793 28.2272 52.2545 28.7357C52.3027 29.359 52.2794 30.0142 52.1754 30.6828C51.656 34.0227 49.3203 36.4325 46.9585 36.0652C45.0176 35.7634 43.6631 33.6801 43.5301 31.0936C41.9474 29.7926 41.0759 27.6227 41.4307 25.3414C41.6683 23.8135 42.4148 22.5003 43.4536 21.5716C44.3706 19.1658 46.2854 17.6075 48.2177 17.908C50.0292 18.1897 51.3299 20.0232 51.6034 22.3693Z" fill="#888888"/>
<path d="M51.6034 22.3693L50.7028 22.4743L50.7308 22.7146L50.8749 22.9091L51.6034 22.3693ZM52.2545 28.7357L51.4252 28.3692L51.333 28.578L51.3506 28.8056L52.2545 28.7357ZM43.5301 31.0936L44.4356 31.047L44.4151 30.6473L44.1059 30.3931L43.5301 31.0936ZM43.4536 21.5716L44.0579 22.2475L44.2223 22.1005L44.3009 21.8945L43.4536 21.5716ZM53.6287 27.2383C53.9395 25.24 53.4239 23.3033 52.3319 21.8295L50.8749 22.9091C51.6784 23.9935 52.073 25.4412 51.8368 26.9597L53.6287 27.2383ZM53.0839 29.1022C53.3405 28.5216 53.5263 27.8966 53.6287 27.2383L51.8368 26.9597C51.759 27.4605 51.6181 27.9328 51.4252 28.3692L53.0839 29.1022ZM53.0714 30.8221C53.186 30.0853 53.2122 29.3599 53.1585 28.6658L51.3506 28.8056C51.3933 29.3581 51.3729 29.9431 51.2795 30.5435L53.0714 30.8221ZM46.8192 36.9612C48.3686 37.2021 49.8216 36.5171 50.9089 35.3953C51.9982 34.2714 52.7863 32.6553 53.0714 30.8221L51.2795 30.5435C51.0452 32.0502 50.4057 33.309 49.6068 34.1332C48.806 34.9594 47.9103 35.2956 47.0978 35.1693L46.8192 36.9612ZM42.6246 31.1401C42.7676 33.9229 44.26 36.5632 46.8192 36.9612L47.0978 35.1693C45.7752 34.9636 44.5585 33.4372 44.4356 31.047L42.6246 31.1401ZM40.5348 25.2021C40.1319 27.7927 41.1181 30.2846 42.9544 31.794L44.1059 30.3931C42.7767 29.3006 42.0199 27.4528 42.3266 25.4807L40.5348 25.2021ZM42.8493 20.8956C41.6552 21.9632 40.8048 23.4656 40.5348 25.2021L42.3266 25.4807C42.5318 24.1614 43.1744 23.0374 44.0579 22.2475L42.8493 20.8956ZM44.3009 21.8945C45.1478 19.6727 46.7616 18.5992 48.0784 18.8039L48.3571 17.0121C45.8093 16.6159 43.5935 18.659 42.6064 21.2486L44.3009 21.8945ZM48.0784 18.8039C49.3138 18.9961 50.4525 20.3271 50.7028 22.4743L52.504 22.2643C52.2073 19.7193 50.7445 17.3834 48.3571 17.0121L48.0784 18.8039Z" fill="#888888" mask="url(#path-18-inside-3_533_7520)"/>
<path d="M64.1872 33.1484L33.1327 52.4156C32.1505 53.0956 29.2339 54.4556 25.4258 54.4556C21.6176 54.4556 14.1675 54.4556 12.7319 54.4556" stroke="#888888" stroke-width="0.906695" stroke-linecap="round"/>
<path d="M41.2934 44.709L32.6797 49.2424C31.6974 49.9224 28.7809 51.2825 24.9727 51.2825C21.1646 51.2825 16.4346 51.2825 14.999 51.2825" stroke="#888888" stroke-width="0.906695" stroke-linecap="round"/>
<path d="M129.696 35.6406L162.094 55.5122C163.602 56.4441 167.395 58.3079 170.498 58.3079C173.601 58.3079 182.996 58.3079 187.306 58.3079" stroke="#888888" stroke-width="0.906695" stroke-linecap="round"/>
<path d="M164.543 36.7162H164.768L166.877 31.0345C167.061 30.5373 167.54 30.2012 168.074 30.2012H182.965C183.494 30.2012 183.978 30.5373 184.162 31.0345L186.271 36.7162H186.496C186.943 36.7162 187.307 37.08 187.307 37.5266V38.1758C187.307 38.6224 186.943 38.9861 186.496 38.9861H186.377V46.5556C186.377 46.7444 186.22 46.9009 186.031 46.9009C185.842 46.9009 185.686 46.7444 185.686 46.5556V38.9861H180.262C179.958 38.9861 179.673 38.8664 179.461 38.6546L175.52 34.7134L171.578 38.6546C171.362 38.871 171.076 38.9861 170.777 38.9861H165.353V39.9024C165.353 40.0912 165.197 40.2477 165.008 40.2477C164.819 40.2477 164.662 40.0912 164.662 39.9024V38.9861H164.543C164.096 38.9861 163.732 38.6224 163.732 38.1758V37.5266C163.732 37.08 164.096 36.7162 164.543 36.7162ZM183.513 31.274C183.43 31.0438 183.209 30.8918 182.965 30.8918H168.074C167.83 30.8918 167.609 31.0438 167.526 31.274L165.505 36.7116H170.303L174.714 32.3007C174.93 32.0843 175.216 31.9692 175.515 31.9692C175.814 31.9692 176.104 32.0889 176.316 32.3007L180.727 36.7116H185.534L183.513 31.274ZM164.423 38.1758C164.423 38.2402 164.478 38.2955 164.543 38.2955H170.777C170.897 38.2955 171.007 38.2495 171.09 38.1666L175.275 33.9813C175.34 33.9168 175.427 33.88 175.52 33.88C175.612 33.88 175.699 33.9168 175.764 33.9813L179.949 38.1666C180.032 38.2495 180.147 38.2955 180.262 38.2955H186.496C186.561 38.2955 186.616 38.2402 186.616 38.1758V37.5266C186.616 37.4621 186.561 37.4069 186.496 37.4069H180.594C180.501 37.4069 180.414 37.37 180.349 37.3056L175.837 32.7934C175.754 32.7105 175.639 32.6645 175.524 32.6645C175.409 32.6645 175.294 32.7105 175.211 32.7934L170.699 37.3056C170.634 37.37 170.547 37.4069 170.455 37.4069H164.552C164.488 37.4069 164.432 37.4621 164.432 37.5266L164.423 38.1758Z" fill="#888888"/>
<path d="M162.372 47.43V38.8164" stroke="#888888" stroke-width="0.906695" stroke-linecap="round"/>
<path d="M149.678 38.3616L149.678 33.8281" stroke="#888888" stroke-width="0.906695" stroke-linecap="round"/>
<mask id="path-26-inside-4_533_7520" fill="white">
<path fill-rule="evenodd" clip-rule="evenodd" d="M157.955 27.3556C157.008 28.6347 156.553 30.3269 156.826 32.0853C156.916 32.6649 157.08 33.2135 157.304 33.722C157.256 34.3453 157.279 35.0005 157.383 35.6691C157.903 39.0091 160.239 41.4188 162.6 41.0516C164.541 40.7497 165.896 38.6664 166.029 36.0799C167.611 34.7789 168.483 32.6091 168.128 30.3277C167.891 28.7998 167.144 27.4866 166.105 26.5579C165.188 24.1522 163.273 22.5938 161.341 22.8943C159.53 23.176 158.229 25.0095 157.955 27.3556Z"/>
</mask>
<path fill-rule="evenodd" clip-rule="evenodd" d="M157.955 27.3556C157.008 28.6347 156.553 30.3269 156.826 32.0853C156.916 32.6649 157.08 33.2135 157.304 33.722C157.256 34.3453 157.279 35.0005 157.383 35.6691C157.903 39.0091 160.239 41.4188 162.6 41.0516C164.541 40.7497 165.896 38.6664 166.029 36.0799C167.611 34.7789 168.483 32.6091 168.128 30.3277C167.891 28.7998 167.144 27.4866 166.105 26.5579C165.188 24.1522 163.273 22.5938 161.341 22.8943C159.53 23.176 158.229 25.0095 157.955 27.3556Z" fill="#888888"/>
<path d="M157.955 27.3556L158.856 27.4606L158.828 27.701L158.684 27.8954L157.955 27.3556ZM157.304 33.722L158.134 33.3555L158.226 33.5643L158.208 33.7919L157.304 33.722ZM166.029 36.0799L165.123 36.0334L165.144 35.6336L165.453 35.3795L166.029 36.0799ZM166.105 26.5579L165.501 27.2338L165.337 27.0869L165.258 26.8808L166.105 26.5579ZM155.93 32.2247C155.619 30.2263 156.135 28.2896 157.227 26.8158L158.684 27.8954C157.88 28.9799 157.486 30.4275 157.722 31.946L155.93 32.2247ZM156.475 34.0886C156.218 33.5079 156.033 32.8829 155.93 32.2247L157.722 31.946C157.8 32.4468 157.941 32.9191 158.134 33.3555L156.475 34.0886ZM156.487 35.8085C156.373 35.0716 156.347 34.3462 156.4 33.6522L158.208 33.7919C158.166 34.3445 158.186 34.9295 158.279 35.5298L156.487 35.8085ZM162.74 41.9475C161.19 42.1884 159.737 41.5034 158.65 40.3816C157.561 39.2577 156.773 37.6417 156.487 35.8085L158.279 35.5298C158.514 37.0365 159.153 38.2953 159.952 39.1195C160.753 39.9457 161.649 40.282 162.461 40.1556L162.74 41.9475ZM166.934 36.1264C166.791 38.9093 165.299 41.5495 162.74 41.9475L162.461 40.1556C163.784 39.9499 165 38.4236 165.123 36.0334L166.934 36.1264ZM169.024 30.1884C169.427 32.779 168.441 35.2709 166.604 36.7803L165.453 35.3795C166.782 34.2869 167.539 32.4391 167.232 30.467L169.024 30.1884ZM166.71 25.8819C167.904 26.9495 168.754 28.4519 169.024 30.1884L167.232 30.467C167.027 29.1477 166.384 28.0237 165.501 27.2338L166.71 25.8819ZM165.258 26.8808C164.411 24.659 162.797 23.5855 161.48 23.7903L161.202 21.9984C163.75 21.6022 165.965 23.6453 166.952 26.2349L165.258 26.8808ZM161.48 23.7903C160.245 23.9824 159.106 25.3134 158.856 27.4606L157.055 27.2506C157.352 24.7057 158.814 22.3697 161.202 21.9984L161.48 23.7903Z" fill="#888888" mask="url(#path-26-inside-4_533_7520)"/>
<mask id="path-28-inside-5_533_7520" fill="white">
<path fill-rule="evenodd" clip-rule="evenodd" d="M145.262 22.3696C144.314 23.6487 143.859 25.3407 144.133 27.099C144.223 27.6786 144.386 28.2274 144.611 28.7359C144.563 29.3592 144.586 30.0143 144.69 30.6828C145.21 34.0227 147.545 36.4325 149.907 36.0652C151.848 35.7634 153.203 33.68 153.335 31.0935C154.918 29.7925 155.79 27.6227 155.435 25.3414C155.197 23.8133 154.45 22.4999 153.411 21.5712C152.494 19.1658 150.58 17.6077 148.648 17.9082C146.836 18.1899 145.535 20.0235 145.262 22.3696Z"/>
</mask>
<path fill-rule="evenodd" clip-rule="evenodd" d="M145.262 22.3696C144.314 23.6487 143.859 25.3407 144.133 27.099C144.223 27.6786 144.386 28.2274 144.611 28.7359C144.563 29.3592 144.586 30.0143 144.69 30.6828C145.21 34.0227 147.545 36.4325 149.907 36.0652C151.848 35.7634 153.203 33.68 153.335 31.0935C154.918 29.7925 155.79 27.6227 155.435 25.3414C155.197 23.8133 154.45 22.4999 153.411 21.5712C152.494 19.1658 150.58 17.6077 148.648 17.9082C146.836 18.1899 145.535 20.0235 145.262 22.3696Z" fill="#888888"/>
<path d="M145.262 22.3696L146.162 22.4746L146.134 22.7149L145.99 22.9094L145.262 22.3696ZM144.611 28.7359L145.44 28.3694L145.533 28.5782L145.515 28.8058L144.611 28.7359ZM153.335 31.0935L152.43 31.0469L152.451 30.6472L152.76 30.393L153.335 31.0935ZM153.411 21.5712L152.807 22.2472L152.643 22.1002L152.564 21.8942L153.411 21.5712ZM143.237 27.2383C142.926 25.2402 143.442 23.3036 144.533 21.8299L145.99 22.9094C145.187 23.9938 144.793 25.4413 145.029 26.9597L143.237 27.2383ZM143.782 29.1025C143.525 28.5218 143.339 27.8967 143.237 27.2383L145.029 26.9597C145.107 27.4606 145.247 27.9329 145.44 28.3694L143.782 29.1025ZM143.794 30.8221C143.68 30.0853 143.653 29.36 143.707 28.6661L145.515 28.8058C145.472 29.3583 145.493 29.9432 145.586 30.5435L143.794 30.8221ZM150.046 36.9611C148.497 37.2021 147.044 36.5171 145.957 35.3952C144.867 34.2714 144.079 32.6553 143.794 30.8221L145.586 30.5435C145.82 32.0502 146.46 33.309 147.259 34.1332C148.06 34.9594 148.955 35.2956 149.768 35.1693L150.046 36.9611ZM154.241 31.14C154.098 33.9229 152.606 36.5631 150.046 36.9611L149.768 35.1693C151.09 34.9636 152.307 33.4372 152.43 31.0469L154.241 31.14ZM156.331 25.2021C156.734 27.7926 155.747 30.2845 153.911 31.7939L152.76 30.393C154.089 29.3005 154.846 27.4527 154.539 25.4807L156.331 25.2021ZM154.016 20.8951C155.21 21.9628 156.061 23.4653 156.331 25.2021L154.539 25.4807C154.334 24.1612 153.691 23.0371 152.807 22.2472L154.016 20.8951ZM152.564 21.8942C151.717 19.6727 150.104 18.5993 148.787 18.8041L148.508 17.0123C151.056 16.6161 153.271 18.6589 154.259 21.2482L152.564 21.8942ZM148.787 18.8041C147.551 18.9962 146.413 20.3273 146.162 22.4746L144.361 22.2646C144.658 19.7196 146.121 17.3835 148.508 17.0123L148.787 18.8041Z" fill="#888888" mask="url(#path-28-inside-5_533_7520)"/>
<path d="M136.723 36.7734L163.732 52.4138C164.715 53.0939 167.631 54.4539 171.439 54.4539C175.248 54.4539 182.89 54.4539 184.325 54.4539" stroke="#888888" stroke-width="0.906695" stroke-linecap="round"/>
<path d="M155.572 44.709L164.186 49.2424C165.168 49.9224 168.084 51.2825 171.892 51.2825C175.701 51.2825 180.431 51.2825 181.866 51.2825" stroke="#888888" stroke-width="0.906695" stroke-linecap="round"/>
<path opacity="0.4" d="M100.464 22.7285H95.694C95.2606 22.7285 94.9082 23.0809 94.9082 23.5143V31.3056C94.9082 31.7388 95.2606 32.0914 95.694 32.0914H100.464C100.897 32.0914 101.25 31.7388 101.25 31.3056V23.5143C101.25 23.0809 100.897 22.7285 100.464 22.7285ZM97.6073 31.1484H95.8512V29.2202H97.6073V31.1484ZM97.6073 28.2772H95.8512V26.5425H97.6073V28.2772ZM97.6073 25.5995H95.8512V23.6715H97.6073V25.5995ZM100.307 31.1484H98.5503V29.2202H100.307V31.1484ZM100.307 28.2772H98.5503V26.5425H100.307V28.2772ZM100.307 25.5995H98.5503V23.6715H100.307V25.5995Z" fill="#888888"/>
<path opacity="0.4" d="M106.788 41.5508C106.528 41.5508 106.317 41.762 106.317 42.0223V43.1544C106.317 43.4147 106.528 43.6259 106.788 43.6259C107.049 43.6259 107.26 43.4147 107.26 43.1544V42.0223C107.26 41.762 107.049 41.5508 106.788 41.5508Z" fill="#888888"/>
<path opacity="0.4" d="M119.264 36.7903C119.243 36.6248 119.158 36.4772 119.026 36.3751L109.037 28.6462C108.815 28.4751 108.551 28.3845 108.271 28.3845C107.991 28.3845 107.727 28.4751 107.505 28.6465L105.994 29.8154V28.4613C105.994 28.2008 105.783 27.9898 105.523 27.9898C105.262 27.9898 105.051 28.2008 105.051 28.4613V30.545L97.5164 36.3748C97.3853 36.476 97.2981 36.6285 97.2775 36.7923C97.2561 36.9581 97.3006 37.1226 97.4025 37.2555L98.167 38.2498C98.287 38.4052 98.4683 38.4944 98.6645 38.4944C98.8025 38.4944 98.9388 38.448 99.0483 38.3632L108.271 31.2274L115.242 36.6212V46.445H111.445V45.5609C111.445 45.3004 111.234 45.0894 110.973 45.0894C110.713 45.0894 110.502 45.3004 110.502 45.5609V46.445H106.04V39.2217H110.502V43.3449C110.502 43.6054 110.713 43.8164 110.973 43.8164C111.234 43.8164 111.445 43.6054 111.445 43.3449V39.0646C111.445 38.6314 111.092 38.2788 110.659 38.2788H105.883C105.449 38.2788 105.097 38.6314 105.097 39.0646V46.445H101.514V45.1589C101.514 44.7255 101.161 44.3731 100.728 44.3731H100.277C100.314 44.1855 100.335 43.9917 100.335 43.7933C100.335 42.1615 99.0068 40.8339 97.375 40.8339C96.4892 40.8339 95.6604 41.2403 95.1061 41.8995C94.8964 41.8331 94.6734 41.7971 94.4421 41.7971C94.2722 41.7971 94.1052 41.816 93.9428 41.8538C93.4293 40.9741 92.4711 40.4083 91.4353 40.4083C91.325 40.4083 91.216 40.4152 91.1084 40.4277V24.6449L98.0798 19.2507L105.051 24.6449V26.2608C105.051 26.5213 105.262 26.7323 105.523 26.7323C105.783 26.7323 105.994 26.5213 105.994 26.2608V25.3745L107.303 26.3867C107.412 26.4715 107.548 26.5179 107.686 26.5179C107.883 26.5179 108.065 26.4285 108.184 26.2728C108.186 26.2706 108.188 26.2681 108.189 26.2659L108.922 25.2768L108.926 25.2709C108.975 25.2102 109.103 25.0494 109.073 24.8139C109.051 24.6476 108.966 24.5 108.835 24.3986L98.8457 16.6697C98.6242 16.4986 98.3595 16.408 98.0798 16.408C97.8001 16.408 97.5353 16.4986 97.3136 16.67L94.571 18.792V18.1977C94.9418 18.1348 95.2252 17.8121 95.2252 17.4239V16.4811C95.2252 16.0477 94.8726 15.6953 94.4394 15.6953H90.6185C90.1853 15.6953 89.8327 16.0477 89.8327 16.4811V17.4236C89.8327 17.8121 90.1161 18.1346 90.4869 18.1977V21.952L87.3258 24.3979C87.1942 24.499 87.107 24.6518 87.0864 24.8151C87.0648 24.9811 87.109 25.1456 87.2112 25.2787L87.9756 26.273C88.0955 26.4287 88.2767 26.5179 88.4732 26.5179C88.6112 26.5179 88.7472 26.4715 88.8572 26.3867L90.1654 25.3745V40.705C89.4169 41.0734 88.8405 41.756 88.6264 42.5888C87.9155 42.8628 87.427 43.5534 87.427 44.3372C87.427 44.4237 87.4332 44.5086 87.4445 44.5921C87.2949 44.7353 87.2016 44.9362 87.2016 45.1589V46.6024C87.2016 47.0356 87.554 47.3882 87.9874 47.3882H117.552C117.812 47.3882 118.023 47.177 118.023 46.9167C118.023 46.6562 117.812 46.4452 117.552 46.4452H116.185V37.3507L117.494 38.3632C117.603 38.4477 117.739 38.4944 117.877 38.4944C118.074 38.4944 118.256 38.405 118.375 38.249C118.377 38.2468 118.379 38.2446 118.38 38.2424L119.113 37.253L119.118 37.2469C119.166 37.1865 119.294 37.0256 119.264 36.7903ZM97.375 41.7769C98.4869 41.7769 99.3916 42.6816 99.3916 43.7933C99.3916 43.9949 99.3612 44.1894 99.3059 44.3731H96.6164C96.6368 44.2533 96.6481 44.13 96.6481 44.0042C96.6481 43.3645 96.3743 42.7879 95.9384 42.3842C96.3112 42.0058 96.8269 41.7769 97.375 41.7769ZM90.7757 16.6383H94.2822V17.2665H90.7757V16.6383ZM93.628 18.2095V19.5216L91.4299 21.2224V18.2095H93.628ZM88.5304 25.4474L88.15 24.9526L97.8904 17.4158C97.9462 17.3728 98.0098 17.351 98.0798 17.351C98.1498 17.351 98.2134 17.3728 98.2689 17.4155L107.996 24.942L107.625 25.4437L98.3683 18.2817C98.1984 18.1503 97.9612 18.1503 97.7912 18.2817L88.5304 25.4474ZM100.571 46.4452H88.1446V45.3161H92.4878C92.7481 45.3161 92.9593 45.1051 92.9593 44.8446C92.9593 44.584 92.7481 44.3731 92.4878 44.3731H88.3713C88.3708 44.3611 88.37 44.3493 88.37 44.3372C88.37 43.8925 88.6861 43.5082 89.122 43.4237C89.3192 43.3854 89.4704 43.2265 89.4989 43.0279C89.6365 42.0723 90.4689 41.3516 91.4353 41.3516C92.2378 41.3516 92.9716 41.8553 93.2611 42.6047C93.3083 42.727 93.404 42.824 93.5259 42.8729C93.6477 42.9215 93.784 42.9171 93.9026 42.8611C94.072 42.7811 94.2537 42.7403 94.4421 42.7403C95.1385 42.7403 95.7051 43.3073 95.7051 44.0045C95.7051 44.1329 95.6849 44.2564 95.6491 44.3731H94.751C94.4905 44.3731 94.2795 44.5843 94.2795 44.8446C94.2795 45.1051 94.4905 45.3161 94.751 45.3161H100.571V46.4452ZM117.816 37.4202L108.56 30.2584C108.39 30.1268 108.152 30.1268 107.983 30.2584L98.7215 37.4239L98.3411 36.9291L108.082 29.3925C108.138 29.3493 108.201 29.3274 108.271 29.3274C108.341 29.3274 108.405 29.3493 108.46 29.3923L118.187 36.9185L117.816 37.4202Z" fill="#888888"/>
<path d="M41.2924 20H25.8785L23.8384 26.8002" stroke="#888888" stroke-width="0.906695" stroke-linecap="round" stroke-linejoin="round"/>
<path d="M18.3983 23.8555H2.98441L0.944336 30.6556" stroke="#888888" stroke-width="0.906695" stroke-linecap="round" stroke-linejoin="round"/>
<path d="M55.3465 11.1621H39.7323L37.6658 15.6956" stroke="#888888" stroke-width="0.906695" stroke-linecap="round" stroke-linejoin="round"/>
<path d="M29.5054 13.4277H13.8913L11.8247 17.9612" stroke="#888888" stroke-width="0.906695" stroke-linecap="round" stroke-linejoin="round"/>
<path d="M155.764 20H171.404L173.444 26.8002" stroke="#888888" stroke-width="0.906695" stroke-linecap="round" stroke-linejoin="round"/>
<path d="M180.925 24.7617H196.565L198.605 31.5619" stroke="#888888" stroke-width="0.906695" stroke-linecap="round" stroke-linejoin="round"/>
<path d="M142.843 11.1621H158.483L160.523 15.6956" stroke="#888888" stroke-width="0.906695" stroke-linecap="round" stroke-linejoin="round"/>
<path d="M142.843 11.1621H158.483L160.523 15.6956" stroke="#888888" stroke-width="0.906695" stroke-linecap="round" stroke-linejoin="round"/>
<path d="M109.749 27.9375H119.775L121.083 32.4709" stroke="#888888" stroke-width="0.906695" stroke-linecap="round" stroke-linejoin="round"/>
<path d="M165.511 14.7891H181.151L183.191 19.3225" stroke="#888888" stroke-width="0.906695" stroke-linecap="round" stroke-linejoin="round"/>
</svg>
