<svg width="200" height="70" viewBox="0 0 200 70" fill="none" xmlns="http://www.w3.org/2000/svg">
<path d="M63.5332 54.1621H94.5871" stroke="#888888" stroke-width="0.993723" stroke-linecap="round" stroke-linejoin="round"/>
<path d="M129.616 54.1621H140.05" stroke="#888888" stroke-width="0.993723" stroke-linecap="round"/>
<path d="M75.9551 47.206V37.7656" stroke="#888888" stroke-width="1.49058" stroke-linecap="round"/>
<path d="M108.748 58.1366H53.0991C49.8695 58.0538 44.6027 57.0932 49.3726 53.9133C54.1425 50.7333 62.8708 42.7339 67.7566 39.2559M117.94 58.1366H146.261C149.408 58.3022 154.36 57.6894 148.994 53.9133C143.627 50.1371 134.916 43.7276 130.61 40.498M57.3283 52.4227L63.2848 47.9509" stroke="#888888" stroke-width="0.993723" stroke-linecap="round" stroke-linejoin="round"/>
<path d="M63.2842 48.1981L78.9354 36.2734H87.8789" stroke="#888888" stroke-width="0.993723" stroke-linecap="round"/>
<mask id="path-6-inside-1_533_7519" fill="white">
<path fill-rule="evenodd" clip-rule="evenodd" d="M74.2866 25.3132C76.3648 24.6091 78.4519 24.7672 80.0022 25.9494C80.513 26.3389 80.932 26.814 81.2596 27.3544C81.9297 27.5755 82.5729 27.909 83.1627 28.3587C86.1084 30.6051 86.6079 34.9026 84.2783 37.9574C82.3642 40.4673 79.1358 41.3574 76.4111 40.3491C73.7834 41.9112 70.8667 42.1023 68.8544 40.5677C67.5058 39.5392 66.7971 37.914 66.7206 36.0667C65.0516 33.7078 65.0649 30.379 66.9698 27.8811C68.7564 25.5383 71.6882 24.6068 74.2866 25.3132Z"/>
</mask>
<path fill-rule="evenodd" clip-rule="evenodd" d="M74.2866 25.3132C76.3648 24.6091 78.4519 24.7672 80.0022 25.9494C80.513 26.3389 80.932 26.814 81.2596 27.3544C81.9297 27.5755 82.5729 27.909 83.1627 28.3587C86.1084 30.6051 86.6079 34.9026 84.2783 37.9574C82.3642 40.4673 79.1358 41.3574 76.4111 40.3491C73.7834 41.9112 70.8667 42.1023 68.8544 40.5677C67.5058 39.5392 66.7971 37.914 66.7206 36.0667C65.0516 33.7078 65.0649 30.379 66.9698 27.8811C68.7564 25.5383 71.6882 24.6068 74.2866 25.3132Z" fill="#888888"/>
<path d="M74.2866 25.3132L74.0259 26.2721L74.3184 26.3516L74.6055 26.2544L74.2866 25.3132ZM81.2596 27.3544L80.4098 27.8696L80.5999 28.1831L80.9482 28.298L81.2596 27.3544ZM76.4111 40.3491L76.756 39.4172L76.3111 39.2525L75.9033 39.4949L76.4111 40.3491ZM66.7206 36.0667L67.7134 36.0255L67.7013 35.7323L67.5318 35.4927L66.7206 36.0667ZM80.6048 25.1593C78.723 23.7242 76.2675 23.5929 73.9678 24.372L74.6055 26.2544C76.4621 25.6254 78.1808 25.8101 79.3997 26.7396L80.6048 25.1593ZM82.1093 26.8392C81.7201 26.1972 81.2187 25.6274 80.6048 25.1593L79.3997 26.7396C79.8073 27.0505 80.1439 27.4309 80.4098 27.8696L82.1093 26.8392ZM83.7653 27.5686C83.0862 27.0507 82.3443 26.6659 81.571 26.4107L80.9482 28.298C81.5152 28.4851 82.0596 28.7672 82.5601 29.1489L83.7653 27.5686ZM85.0685 38.56C87.71 35.0961 87.1742 30.1682 83.7653 27.5686L82.5601 29.1489C85.0426 31.042 85.5057 34.7091 83.4881 37.3548L85.0685 38.56ZM76.0662 41.2811C79.2085 42.4439 82.8947 41.4104 85.0685 38.56L83.4881 37.3548C81.8337 39.5242 79.0631 40.271 76.756 39.4172L76.0662 41.2811ZM68.2518 41.3578C70.7005 43.2252 74.0848 42.8881 76.9189 41.2033L75.9033 39.4949C73.482 40.9343 71.033 40.9793 69.457 39.7775L68.2518 41.3578ZM65.7277 36.1078C65.8136 38.18 66.6174 40.1114 68.2518 41.3578L69.457 39.7775C68.3942 38.967 67.7807 37.648 67.7134 36.0255L65.7277 36.1078ZM67.5318 35.4927C66.1183 33.4951 66.1135 30.6426 67.7599 28.4837L66.1796 27.2785C64.0162 30.1154 63.9848 33.9206 65.9094 36.6406L67.5318 35.4927ZM67.7599 28.4837C69.3035 26.4596 71.821 25.6726 74.0259 26.2721L74.5473 24.3543C71.5555 23.5409 68.2094 24.6169 66.1796 27.2785L67.7599 28.4837Z" fill="#888888" mask="url(#path-6-inside-1_533_7519)"/>
<path d="M152.26 45.4648L169.096 55.0708C170.75 56.0921 174.906 58.1348 178.307 58.1348C181.708 58.1348 192.005 58.1348 196.729 58.1348" stroke="#888888" stroke-width="0.993723" stroke-linecap="round"/>
<path d="M155.49 36.2713L155.49 31.3027" stroke="#888888" stroke-width="0.993723" stroke-linecap="round"/>
<mask id="path-10-inside-2_533_7519" fill="white">
<path fill-rule="evenodd" clip-rule="evenodd" d="M150.649 18.7517C149.611 20.1535 149.113 22.0078 149.412 23.9347C149.511 24.5698 149.69 25.1711 149.936 25.7283C149.883 26.4116 149.909 27.1299 150.023 27.8629C150.592 31.5234 153.152 34.1645 155.741 33.7619C157.868 33.4311 159.352 31.1477 159.498 28.3129C161.233 26.887 162.188 24.5088 161.799 22.0084C161.539 20.3336 160.72 18.8942 159.581 17.8763C158.576 15.2398 156.478 13.532 154.36 13.8613C152.375 14.1701 150.949 16.18 150.649 18.7517Z"/>
</mask>
<path fill-rule="evenodd" clip-rule="evenodd" d="M150.649 18.7517C149.611 20.1535 149.113 22.0078 149.412 23.9347C149.511 24.5698 149.69 25.1711 149.936 25.7283C149.883 26.4116 149.909 27.1299 150.023 27.8629C150.592 31.5234 153.152 34.1645 155.741 33.7619C157.868 33.4311 159.352 31.1477 159.498 28.3129C161.233 26.887 162.188 24.5088 161.799 22.0084C161.539 20.3336 160.72 18.8942 159.581 17.8763C158.576 15.2398 156.478 13.532 154.36 13.8613C152.375 14.1701 150.949 16.18 150.649 18.7517Z" fill="#888888"/>
<path d="M150.649 18.7517L151.637 18.8667L151.606 19.1301L151.448 19.3432L150.649 18.7517ZM149.936 25.7283L150.845 25.3266L150.946 25.5555L150.927 25.805L149.936 25.7283ZM155.741 33.7619L155.893 34.7438L155.741 33.7619ZM159.498 28.3129L158.506 28.2619L158.528 27.8237L158.867 27.5452L159.498 28.3129ZM159.581 17.8763L158.919 18.6172L158.739 18.4561L158.653 18.2303L159.581 17.8763ZM148.43 24.0874C148.09 21.8977 148.655 19.7754 149.851 18.1602L151.448 19.3432C150.568 20.5317 150.135 22.118 150.394 23.782L148.43 24.0874ZM149.027 26.13C148.746 25.4937 148.542 24.8088 148.43 24.0874L150.394 23.782C150.479 24.3309 150.634 24.8484 150.845 25.3266L149.027 26.13ZM149.041 28.0156C148.915 27.2077 148.887 26.4125 148.945 25.6517L150.927 25.805C150.88 26.4107 150.902 27.052 151.005 27.7102L149.041 28.0156ZM155.893 34.7438C154.195 35.0079 152.603 34.2572 151.411 33.0276C150.217 31.7959 149.353 30.0247 149.041 28.0156L151.005 27.7102C151.262 29.3615 151.963 30.7411 152.838 31.6444C153.716 32.5499 154.697 32.9185 155.588 32.78L155.893 34.7438ZM160.49 28.3638C160.334 31.4139 158.698 34.3077 155.893 34.7438L155.588 32.78C157.037 32.5546 158.371 30.8816 158.506 28.2619L160.49 28.3638ZM162.781 21.8557C163.223 24.6951 162.142 27.4263 160.129 29.0805L158.867 27.5452C160.324 26.3478 161.153 24.3225 160.817 22.1611L162.781 21.8557ZM160.244 17.1354C161.553 18.3055 162.485 19.9523 162.781 21.8557L160.817 22.1611C160.592 20.715 159.888 19.4829 158.919 18.6172L160.244 17.1354ZM158.653 18.2303C157.725 15.7953 155.956 14.6188 154.513 14.8432L154.208 12.8794C157 12.4451 159.428 14.6843 160.51 17.5223L158.653 18.2303ZM154.513 14.8432C153.159 15.0538 151.911 16.5129 151.637 18.8667L149.662 18.6367C149.987 15.8471 151.591 13.2863 154.208 12.8794L154.513 14.8432Z" fill="#888888" mask="url(#path-10-inside-2_533_7519)"/>
<path d="M161.452 46.709L170.893 51.6776C171.969 52.4229 175.166 53.9135 179.339 53.9135C183.513 53.9135 191.889 53.9135 193.462 53.9135" stroke="#888888" stroke-width="0.993723" stroke-linecap="round"/>
<path d="M47.3535 45.4648L30.517 55.0708C28.8638 56.0921 24.7071 58.1348 21.3061 58.1348C17.9052 58.1348 7.60786 58.1348 2.88432 58.1348" stroke="#888888" stroke-width="0.993723" stroke-linecap="round"/>
<path d="M30.2102 46.2118V36.7715" stroke="#888888" stroke-width="0.993723" stroke-linecap="round"/>
<mask id="path-15-inside-3_533_7519" fill="white">
<path fill-rule="evenodd" clip-rule="evenodd" d="M35.0506 24.2188C36.089 25.6207 36.5876 27.475 36.2879 29.4019C36.1892 30.037 36.0102 30.6382 35.7639 31.1955C35.8167 31.8787 35.7912 32.5968 35.6772 33.3296C35.1079 36.9902 32.5481 39.6313 29.9595 39.2287C27.8324 38.8979 26.3479 36.6147 26.2021 33.78C24.4675 32.3541 23.5122 29.9759 23.9011 27.4756C24.1615 25.8008 24.9799 24.3614 26.1187 23.3435C27.1237 20.7069 29.2222 18.9991 31.3399 19.3284C33.3255 19.6372 34.7511 21.6471 35.0506 24.2188Z"/>
</mask>
<path fill-rule="evenodd" clip-rule="evenodd" d="M35.0506 24.2188C36.089 25.6207 36.5876 27.475 36.2879 29.4019C36.1892 30.037 36.0102 30.6382 35.7639 31.1955C35.8167 31.8787 35.7912 32.5968 35.6772 33.3296C35.1079 36.9902 32.5481 39.6313 29.9595 39.2287C27.8324 38.8979 26.3479 36.6147 26.2021 33.78C24.4675 32.3541 23.5122 29.9759 23.9011 27.4756C24.1615 25.8008 24.9799 24.3614 26.1187 23.3435C27.1237 20.7069 29.2222 18.9991 31.3399 19.3284C33.3255 19.6372 34.7511 21.6471 35.0506 24.2188Z" fill="#888888"/>
<path d="M35.0506 24.2188L34.0636 24.3338L34.0943 24.5972L34.2521 24.8103L35.0506 24.2188ZM35.7639 31.1955L34.855 30.7938L34.7538 31.0226L34.7731 31.2721L35.7639 31.1955ZM26.2021 33.78L27.1946 33.729L27.172 33.2909L26.8331 33.0123L26.2021 33.78ZM23.9011 27.4756L22.9192 27.3229L23.9011 27.4756ZM26.1187 23.3435L26.7809 24.0843L26.9611 23.9233L27.0472 23.6974L26.1187 23.3435ZM37.2698 29.5546C37.6104 27.3648 37.0456 25.2425 35.8492 23.6273L34.2521 24.8103C35.1325 25.9988 35.5648 27.5852 35.306 29.2492L37.2698 29.5546ZM36.6728 31.5972C36.954 30.9609 37.1577 30.2759 37.2698 29.5546L35.306 29.2492C35.2207 29.798 35.0663 30.3156 34.855 30.7938L36.6728 31.5972ZM36.6591 33.4823C36.7847 32.6747 36.8135 31.8796 36.7547 31.1189L34.7731 31.2721C34.8199 31.8777 34.7976 32.5189 34.6953 33.1769L36.6591 33.4823ZM29.8068 40.2106C31.5049 40.4747 33.0974 39.724 34.2891 38.4944C35.483 37.2627 36.3467 35.4915 36.6591 33.4823L34.6953 33.1769C34.4385 34.8283 33.7376 36.2079 32.862 37.1112C31.9844 38.0167 31.0027 38.3853 30.1122 38.2468L29.8068 40.2106ZM25.2097 33.831C25.3665 36.8809 27.0021 39.7745 29.8068 40.2106L30.1122 38.2468C28.6627 38.0214 27.3292 36.3485 27.1946 33.729L25.2097 33.831ZM22.9192 27.3229C22.4776 30.1622 23.5586 32.8934 25.5711 34.5477L26.8331 33.0123C25.3764 31.8149 24.5469 29.7897 24.883 27.6283L22.9192 27.3229ZM25.4564 22.6026C24.1474 23.7726 23.2152 25.4194 22.9192 27.3229L24.883 27.6283C25.1079 26.1821 25.8124 24.9501 26.7809 24.0843L25.4564 22.6026ZM27.0472 23.6974C27.9754 21.2624 29.7441 20.0859 31.1872 20.3104L31.4926 18.3465C28.7004 17.9123 26.272 20.1514 25.1901 22.9895L27.0472 23.6974ZM31.1872 20.3104C32.5414 20.521 33.7895 21.9801 34.0636 24.3338L36.0377 24.1039C35.7128 21.3142 34.1096 18.7535 31.4926 18.3465L31.1872 20.3104Z" fill="#888888" mask="url(#path-15-inside-3_533_7519)"/>
<path d="M38.1614 46.707L28.721 51.6756C27.6445 52.4209 24.448 53.9115 20.2743 53.9115C16.1007 53.9115 7.72525 53.9115 6.15186 53.9115" stroke="#888888" stroke-width="0.993723" stroke-linecap="round"/>
<path opacity="0.4" d="M101.553 19.1387H96.3251C95.8501 19.1387 95.4639 19.5249 95.4639 19.9999V28.539C95.4639 29.0138 95.8501 29.4003 96.3251 29.4003H101.553C102.028 29.4003 102.414 29.0138 102.414 28.539V19.9999C102.414 19.5249 102.028 19.1387 101.553 19.1387ZM98.422 28.3668H96.4974V26.2535H98.422V28.3668ZM98.422 25.22H96.4974V23.3187H98.422V25.22ZM98.422 22.2852H96.4974V20.1722H98.422V22.2852ZM101.38 28.3668H99.4555V26.2535H101.38V28.3668ZM101.38 25.22H99.4555V23.3187H101.38V25.22ZM101.38 22.2852H99.4555V20.1722H101.38V22.2852Z" fill="#888888"/>
<path opacity="0.4" d="M108.485 39.7695C108.199 39.7695 107.968 40.001 107.968 40.2863V41.527C107.968 41.8123 108.199 42.0438 108.485 42.0438C108.77 42.0438 109.001 41.8123 109.001 41.527V40.2863C109.001 40.001 108.77 39.7695 108.485 39.7695Z" fill="#888888"/>
<path opacity="0.4" d="M122.157 34.5516C122.133 34.3702 122.041 34.2084 121.896 34.0964L110.948 25.6257C110.705 25.4381 110.415 25.3388 110.109 25.3388C109.802 25.3388 109.512 25.4381 109.269 25.626L107.613 26.9071V25.423C107.613 25.1375 107.382 24.9063 107.097 24.9063C106.811 24.9063 106.58 25.1375 106.58 25.423V27.7067L98.322 34.0962C98.1782 34.2071 98.0827 34.3742 98.0601 34.5537C98.0367 34.7354 98.0854 34.9157 98.1971 35.0613L99.0349 36.1511C99.1665 36.3214 99.3652 36.4191 99.5802 36.4191C99.7315 36.4191 99.8808 36.3683 100.001 36.2754L110.109 28.4547L117.749 34.3661V45.1329H113.587V44.164C113.587 43.8784 113.356 43.6473 113.07 43.6473C112.785 43.6473 112.553 43.8784 112.553 44.164V45.1329H107.663V37.2163H112.553V41.7353C112.553 42.0208 112.785 42.252 113.07 42.252C113.356 42.252 113.587 42.0208 113.587 41.7353V37.0441C113.587 36.5693 113.2 36.1828 112.726 36.1828H107.491C107.016 36.1828 106.63 36.5693 106.63 37.0441V45.1329H102.703V43.7234C102.703 43.2484 102.317 42.8622 101.842 42.8622H101.347C101.388 42.6565 101.411 42.4442 101.411 42.2267C101.411 40.4383 99.9554 38.9833 98.1669 38.9833C97.1961 38.9833 96.2878 39.4287 95.6803 40.1511C95.4505 40.0784 95.2061 40.0389 94.9525 40.0389C94.7663 40.0389 94.5833 40.0596 94.4054 40.101C93.8426 39.137 92.7924 38.5168 91.6571 38.5168C91.5363 38.5168 91.4168 38.5244 91.2989 38.5381V21.2403L98.9394 15.3283L106.58 21.2403V23.0112C106.58 23.2968 106.811 23.528 107.097 23.528C107.382 23.528 107.614 23.2968 107.614 23.0112V22.0399L109.048 23.1493C109.167 23.2422 109.317 23.293 109.468 23.293C109.684 23.293 109.882 23.1951 110.014 23.0244C110.015 23.022 110.017 23.0193 110.019 23.0169L110.822 21.9328L110.827 21.9263C110.88 21.8599 111.021 21.6836 110.988 21.4255C110.964 21.2432 110.871 21.0815 110.727 20.9703L99.7788 12.4996C99.5361 12.312 99.2459 12.2127 98.9394 12.2127C98.6328 12.2127 98.3427 12.312 98.0996 12.4999L95.0938 14.8255V14.1742C95.5002 14.1053 95.8108 13.7517 95.8108 13.3261V12.2929C95.8108 11.8179 95.4244 11.4316 94.9496 11.4316H90.762C90.2872 11.4316 89.9007 11.8179 89.9007 12.2929V13.3259C89.9007 13.7517 90.2113 14.105 90.6177 14.1742V18.2889L87.1533 20.9695C87.009 21.0804 86.9135 21.2478 86.8909 21.4268C86.8672 21.6087 86.9156 21.7891 87.0276 21.9349L87.8655 23.0247C87.9968 23.1953 88.1954 23.293 88.4107 23.293C88.562 23.293 88.7111 23.2422 88.8317 23.1493L90.2654 22.0399V38.842C89.4451 39.2457 88.8134 39.9939 88.5787 40.9066C87.7995 41.2069 87.2642 41.9638 87.2642 42.8229C87.2642 42.9176 87.2709 43.0107 87.2833 43.1022C87.1194 43.2591 87.0171 43.4793 87.0171 43.7234V45.3054C87.0171 45.7802 87.4033 46.1667 87.8784 46.1667H120.28C120.566 46.1667 120.797 45.9352 120.797 45.6499C120.797 45.3644 120.566 45.1332 120.28 45.1332H118.783V35.1657L120.217 36.2754C120.337 36.368 120.486 36.4191 120.637 36.4191C120.853 36.4191 121.052 36.3212 121.183 36.1503C121.185 36.1479 121.187 36.1454 121.188 36.143L121.991 35.0586L121.997 35.0519C122.049 34.9857 122.19 34.8094 122.157 34.5516ZM98.1669 40.0168C99.3856 40.0168 100.377 41.0083 100.377 42.2267C100.377 42.4477 100.344 42.6608 100.283 42.8622H97.3355C97.3579 42.7308 97.3703 42.5957 97.3703 42.4579C97.3703 41.7568 97.0702 41.1248 96.5924 40.6824C97.001 40.2676 97.5662 40.0168 98.1669 40.0168ZM90.9342 12.4651H94.7773V13.1536H90.9342V12.4651ZM94.0603 14.1871V15.6252L91.6512 17.4892V14.1871H94.0603ZM88.4734 22.1198L88.0565 21.5775L98.7319 13.3173C98.793 13.2702 98.8627 13.2462 98.9394 13.2462C99.0161 13.2462 99.0858 13.2702 99.1466 13.317L109.807 21.566L109.4 22.1158L99.2556 14.2663C99.0694 14.1223 98.8094 14.1223 98.6231 14.2663L88.4734 22.1198ZM101.67 45.1332H88.0506V43.8957H92.8107C93.096 43.8957 93.3275 43.6645 93.3275 43.3789C93.3275 43.0934 93.096 42.8622 92.8107 42.8622H88.299C88.2985 42.849 88.2977 42.8361 88.2977 42.8229C88.2977 42.3354 88.6441 41.9142 89.1218 41.8217C89.3379 41.7797 89.5037 41.6055 89.5349 41.3878C89.6857 40.3406 90.5981 39.5506 91.6571 39.5506C92.5367 39.5506 93.3409 40.1026 93.6582 40.9241C93.7099 41.0581 93.8149 41.1644 93.9484 41.218C94.0819 41.2713 94.2312 41.2664 94.3612 41.205C94.5469 41.1173 94.7461 41.0726 94.9525 41.0726C95.7158 41.0726 96.3367 41.6941 96.3367 42.4582C96.3367 42.5989 96.3147 42.7343 96.2754 42.8622H95.2911C95.0056 42.8622 94.7744 43.0936 94.7744 43.3789C94.7744 43.6645 95.0056 43.8957 95.2911 43.8957H101.67V45.1332ZM120.57 35.2419L110.425 27.3926C110.239 27.2484 109.979 27.2484 109.793 27.3926L99.6426 35.246L99.2257 34.7036L109.901 26.4436C109.962 26.3963 110.032 26.3723 110.109 26.3723C110.185 26.3723 110.255 26.3963 110.316 26.4434L120.977 34.6921L120.57 35.2419Z" fill="#888888"/>
<path d="M163.403 17.3945H188.246V26.5865" stroke="#888888" stroke-width="0.993723" stroke-linecap="round" stroke-linejoin="round"/>
<path d="M36.2118 17.3945H11.3687V26.5865" stroke="#888888" stroke-width="0.993723" stroke-linecap="round" stroke-linejoin="round"/>
<path d="M179.557 29.8125H198.686V45.2152H175.831V37.3305" stroke="#888888" stroke-width="0.993723" stroke-linecap="round"/>
<path d="M20.0633 29.8125H0.93412V45.2152H23.7898V37.3305" stroke="#888888" stroke-width="0.993723" stroke-linecap="round"/>
</svg>
