<svg width="200" height="70" viewBox="0 0 200 70" fill="none" xmlns="http://www.w3.org/2000/svg">
<path d="M71.877 48.1756V36.7812" stroke="#888888" stroke-width="1.7991" stroke-linecap="round"/>
<path d="M111.457 61.369H44.2907C40.3927 61.2691 34.2263 60.7584 39.4934 56.2715C47.5893 49.375 56.0849 42.7783 61.982 38.5804M122.552 61.369H156.735C160.533 61.5689 166.51 60.8293 160.033 56.2715C153.556 51.7138 143.042 43.9777 137.844 40.0796C136.945 38.9802 134.126 36.7812 130.048 36.7812" stroke="#888888" stroke-width="1.1994" stroke-linecap="round" stroke-linejoin="round"/>
<mask id="path-3-inside-1_533_7518" fill="white">
<path fill-rule="evenodd" clip-rule="evenodd" d="M69.8631 21.7512C72.3718 20.901 74.8912 21.0916 76.7627 22.5188C77.3787 22.9886 77.8841 23.5615 78.2794 24.2131C79.0888 24.48 79.8655 24.8826 80.5777 25.4258C84.1331 28.1371 84.736 33.3241 81.9242 37.0112C79.6142 40.0404 75.718 41.1148 72.4295 39.8982C69.2576 41.7842 65.7367 42.0151 63.3075 40.1627C61.6801 38.9216 60.8248 36.9605 60.7321 34.7313C58.7171 31.8842 58.7329 27.8659 61.0323 24.8507C63.1887 22.0231 66.7271 20.8988 69.8631 21.7512Z"/>
</mask>
<path fill-rule="evenodd" clip-rule="evenodd" d="M69.8631 21.7512C72.3718 20.901 74.8912 21.0916 76.7627 22.5188C77.3787 22.9886 77.8841 23.5615 78.2794 24.2131C79.0888 24.48 79.8655 24.8826 80.5777 25.4258C84.1331 28.1371 84.736 33.3241 81.9242 37.0112C79.6142 40.0404 75.718 41.1148 72.4295 39.8982C69.2576 41.7842 65.7367 42.0151 63.3075 40.1627C61.6801 38.9216 60.8248 36.9605 60.7321 34.7313C58.7171 31.8842 58.7329 27.8659 61.0323 24.8507C63.1887 22.0231 66.7271 20.8988 69.8631 21.7512Z" fill="#888888"/>
<path d="M69.8631 21.7512L69.5485 22.9086L69.9016 23.0045L70.2481 22.8871L69.8631 21.7512ZM78.2794 24.2131L77.2539 24.8352L77.4835 25.2135L77.9038 25.3521L78.2794 24.2131ZM72.4295 39.8982L72.8457 38.7733L72.3087 38.5746L71.8165 38.8673L72.4295 39.8982ZM60.7321 34.7313L61.9305 34.6815L61.9157 34.3276L61.7111 34.0384L60.7321 34.7313ZM77.49 21.5651C75.2184 19.8327 72.2542 19.6744 69.4782 20.6152L70.2481 22.8871C72.4894 22.1276 74.5641 22.3505 76.0354 23.4725L77.49 21.5651ZM79.3049 23.591C78.8352 22.8168 78.2304 22.1297 77.49 21.5651L76.0354 23.4725C76.5271 23.8475 76.9331 24.3062 77.2539 24.8352L79.3049 23.591ZM81.305 24.472C80.4849 23.8467 79.589 23.3821 78.6551 23.074L77.9038 25.3521C78.5885 25.578 79.246 25.9186 79.8504 26.3795L81.305 24.472ZM82.8779 37.7385C86.0662 33.5576 85.4196 27.6098 81.305 24.472L79.8504 26.3795C82.8467 28.6645 83.4057 33.0905 80.9705 36.2839L82.8779 37.7385ZM72.0133 41.0231C75.8058 42.4261 80.2545 41.1787 82.8779 37.7385L80.9705 36.2839C78.9738 38.9021 75.6302 39.8035 72.8457 38.7733L72.0133 41.0231ZM62.5802 41.1164C65.5361 43.3705 69.6215 42.9633 73.0425 40.9291L71.8165 38.8673C68.8937 40.6052 65.9373 40.6598 64.0348 39.209L62.5802 41.1164ZM59.5337 34.7812C59.6377 37.2817 60.6079 39.6123 62.5802 41.1164L64.0348 39.209C62.7523 38.2309 62.0119 36.6393 61.9305 34.6815L59.5337 34.7812ZM61.7111 34.0384C60.0047 31.6273 59.9987 28.1841 61.9861 25.578L60.0786 24.1234C57.4672 27.5478 57.4295 32.1411 59.7531 35.4242L61.7111 34.0384ZM61.9861 25.578C63.849 23.1352 66.8873 22.1852 69.5485 22.9086L70.1777 20.5938C66.5668 19.6123 62.5284 20.911 60.0786 24.1234L61.9861 25.578Z" fill="#888888" mask="url(#path-3-inside-1_533_7518)"/>
<path opacity="0.4" d="M102.774 14.2969H96.4643C95.891 14.2969 95.4248 14.763 95.4248 15.3364V25.6429C95.4248 26.216 95.891 26.6824 96.4643 26.6824H102.774C103.347 26.6824 103.813 26.216 103.813 25.6429V15.3364C103.813 14.763 103.347 14.2969 102.774 14.2969ZM98.9952 25.435H96.6722V22.8843H98.9952V25.435ZM98.9952 21.6369H96.6722V19.3421H98.9952V21.6369ZM98.9952 18.0947H96.6722V15.5443H98.9952V18.0947ZM102.566 25.435H100.243V22.8843H102.566V25.435ZM102.566 21.6369H100.243V19.3421H102.566V21.6369ZM102.566 18.0947H100.243V15.5443H102.566V18.0947Z" fill="#888888"/>
<path opacity="0.4" d="M111.139 39.2012C110.795 39.2012 110.516 39.4805 110.516 39.8249V41.3224C110.516 41.6668 110.795 41.9462 111.139 41.9462C111.484 41.9462 111.763 41.6668 111.763 41.3224V39.8249C111.763 39.4805 111.484 39.2012 111.139 39.2012Z" fill="#888888"/>
<path opacity="0.4" d="M127.644 32.9014C127.615 32.6824 127.503 32.4872 127.329 32.3521L114.115 22.1281C113.822 21.9016 113.472 21.7818 113.102 21.7818C112.732 21.7818 112.382 21.9016 112.088 22.1284L110.09 23.6747V21.8834C110.09 21.5388 109.811 21.2597 109.466 21.2597C109.122 21.2597 108.842 21.5388 108.842 21.8834V24.6398L98.8754 32.3517C98.7019 32.4856 98.5866 32.6873 98.5593 32.904C98.5311 33.1233 98.5899 33.3409 98.7247 33.5167L99.7359 34.832C99.8948 35.0376 100.135 35.1555 100.394 35.1555C100.577 35.1555 100.757 35.0941 100.902 34.9821L113.102 25.5426L122.323 32.6776V45.6729H117.3V44.5034C117.3 44.1588 117.021 43.8797 116.676 43.8797C116.332 43.8797 116.053 44.1588 116.053 44.5034V45.6729H110.15V36.1177H116.053V41.572C116.053 41.9166 116.332 42.1957 116.676 42.1957C117.021 42.1957 117.3 41.9166 117.3 41.572V35.9098C117.3 35.3368 116.833 34.8703 116.26 34.8703H109.943C109.369 34.8703 108.903 35.3368 108.903 35.9098V45.6729H104.163V43.9716C104.163 43.3983 103.697 42.9321 103.124 42.9321H102.527C102.576 42.6839 102.603 42.4276 102.603 42.1651C102.603 40.0065 100.847 38.2504 98.6883 38.2504C97.5166 38.2504 96.4202 38.788 95.687 39.6599C95.4096 39.5722 95.1146 39.5244 94.8086 39.5244C94.5838 39.5244 94.3629 39.5495 94.1482 39.5995C93.4689 38.4359 92.2014 37.6874 90.8311 37.6874C90.6853 37.6874 90.5411 37.6965 90.3988 37.7131V16.8349L99.6206 9.69928L108.843 16.8349V18.9725C108.843 19.3171 109.122 19.5962 109.466 19.5962C109.811 19.5962 110.09 19.3171 110.09 18.9725V17.8001L111.821 19.1391C111.966 19.2512 112.146 19.3126 112.328 19.3126C112.589 19.3126 112.829 19.1943 112.987 18.9884C112.989 18.9854 112.991 18.9822 112.994 18.9793L113.962 17.6708L113.969 17.663C114.033 17.5827 114.202 17.37 114.163 17.0584C114.134 16.8385 114.022 16.6433 113.847 16.5091L100.634 6.2851C100.341 6.05868 99.9906 5.93881 99.6206 5.93881C99.2506 5.93881 98.9004 6.05868 98.6071 6.28542L94.9792 9.09246V8.30632C95.4697 8.22316 95.8446 7.7963 95.8446 7.28272V6.03561C95.8446 5.46225 95.3781 4.99609 94.805 4.99609H89.7507C89.1777 4.99609 88.7112 5.46225 88.7112 6.03561V7.28239C88.7112 7.7963 89.0861 8.22283 89.5766 8.30632V13.2726L85.3951 16.5081C85.221 16.642 85.1057 16.844 85.0784 17.0601C85.0498 17.2797 85.1083 17.4973 85.2434 17.6734L86.2547 18.9887C86.4132 19.1947 86.6529 19.3126 86.9128 19.3126C87.0954 19.3126 87.2753 19.2512 87.4209 19.1391L89.1513 17.8001V38.0798C88.1612 38.5671 87.3988 39.4702 87.1155 40.5718C86.1751 40.9343 85.5289 41.8478 85.5289 42.8847C85.5289 42.999 85.5371 43.1114 85.552 43.2219C85.3542 43.4113 85.2307 43.677 85.2307 43.9716V45.8811C85.2307 46.4541 85.6969 46.9206 86.2703 46.9206H125.379C125.723 46.9206 126.002 46.6413 126.002 46.2969C126.002 45.9523 125.723 45.6732 125.379 45.6732H123.571V33.6427L125.302 34.9821C125.447 35.0938 125.627 35.1555 125.809 35.1555C126.07 35.1555 126.31 35.0373 126.468 34.831C126.47 34.8281 126.472 34.8252 126.475 34.8222L127.444 33.5134L127.45 33.5053C127.514 33.4254 127.683 33.2126 127.644 32.9014ZM98.6883 39.4978C100.159 39.4978 101.356 40.6945 101.356 42.1651C101.356 42.4319 101.316 42.6891 101.243 42.9321H97.6848C97.7118 42.7736 97.7267 42.6105 97.7267 42.4442C97.7267 41.598 97.3645 40.8352 96.7879 40.3012C97.281 39.8006 97.9632 39.4978 98.6883 39.4978ZM89.9586 6.24352H94.5971V7.07449H89.9586V6.24352ZM93.7317 8.32191V10.0576L90.824 12.3075V8.32191H93.7317ZM86.9885 17.8966L86.4853 17.242L99.3702 7.272C99.4439 7.21515 99.528 7.18623 99.6206 7.18623C99.7132 7.18623 99.7973 7.21515 99.8707 7.27167L112.738 17.228L112.247 17.8917L100.002 8.41742C99.7775 8.24362 99.4637 8.24362 99.2389 8.41742L86.9885 17.8966ZM102.916 45.6732H86.4782V44.1795H92.2235C92.5678 44.1795 92.8472 43.9005 92.8472 43.5558C92.8472 43.2112 92.5678 42.9321 92.2235 42.9321H86.778C86.7773 42.9162 86.7764 42.9006 86.7764 42.8847C86.7764 42.2964 87.1944 41.788 87.7711 41.6762C88.0319 41.6256 88.232 41.4154 88.2697 41.1526C88.4516 39.8886 89.5529 38.9352 90.8311 38.9352C91.8928 38.9352 92.8634 39.6014 93.2464 40.5929C93.3088 40.7546 93.4355 40.883 93.5966 40.9476C93.7577 41.0119 93.938 41.0061 94.0949 40.932C94.3191 40.8261 94.5595 40.7722 94.8086 40.7722C95.7299 40.7722 96.4793 41.5223 96.4793 42.4445C96.4793 42.6144 96.4527 42.7778 96.4052 42.9321H95.2173C94.8726 42.9321 94.5936 43.2115 94.5936 43.5558C94.5936 43.9005 94.8726 44.1795 95.2173 44.1795H102.916V45.6732ZM125.728 33.7346L113.484 24.2607C113.259 24.0866 112.945 24.0866 112.72 24.2607L100.469 33.7395L99.9663 33.0849L112.851 23.1153C112.925 23.0581 113.009 23.0292 113.102 23.0292C113.194 23.0292 113.279 23.0581 113.352 23.1149L126.219 33.071L125.728 33.7346Z" fill="#888888"/>
<path d="M106.059 64.9667H43.9274C40.0294 64.8667 33.863 64.3561 39.1302 59.8692C47.2261 52.9726 55.7216 46.3759 61.6187 42.178M117.154 64.9667H156.371C160.169 65.1666 166.147 64.4269 159.67 59.8692C153.193 55.3115 142.678 47.5753 137.481 43.6773C136.581 42.5778 133.763 40.3789 129.685 40.3789" stroke="#888888" stroke-width="1.1994" stroke-linecap="round" stroke-linejoin="round"/>
</svg>
